<?xml version="1.0" encoding="UTF-8" standalone="no"?>
<!DOCTYPE svg PUBLIC "-//W3C//DTD SVG 1.1//EN"
 "http://www.w3.org/Graphics/SVG/1.1/DTD/svg11.dtd">
<!-- Generated by graphviz version 2.36.0 (20140111.2315)
 -->
<!-- Title: controllers_diagram Pages: 1 -->
<svg width="979pt" height="591pt"
 viewBox="0.00 0.00 979.25 591.44" xmlns="http://www.w3.org/2000/svg" xmlns:xlink="http://www.w3.org/1999/xlink">
<g id="graph0" class="graph" transform="scale(1 1) rotate(0) translate(4 587.438)">
<title>controllers_diagram</title>
<polygon fill="white" stroke="none" points="-4,4 -4,-587.438 975.252,-587.438 975.252,4 -4,4"/>
<!-- _diagram_info -->
<g id="node1" class="node"><title>_diagram_info</title>
<text text-anchor="start" x="489" y="-285.6" font-family="Times,serif" font-size="13.00">Controllers diagram</text>
<text text-anchor="start" x="489" y="-271.6" font-family="Times,serif" font-size="13.00">Date: Sep 14 2014 &#45; 20:14</text>
<text text-anchor="start" x="489" y="-257.6" font-family="Times,serif" font-size="13.00">Migration version: 20140913140623</text>
<text text-anchor="start" x="489" y="-243.6" font-family="Times,serif" font-size="13.00">Generated by RailRoady 1.1.2</text>
<text text-anchor="start" x="489" y="-229.6" font-family="Times,serif" font-size="13.00">http://railroady.prestonlee.com</text>
</g>
<!-- LogFilesController -->
<g id="node2" class="node"><title>LogFilesController</title>
<path fill="none" stroke="black" d="M12,-4.4968C12,-4.4968 108,-4.4968 108,-4.4968 114,-4.4968 120,-10.4968 120,-16.4968 120,-16.4968 120,-205.497 120,-205.497 120,-211.497 114,-217.497 108,-217.497 108,-217.497 12,-217.497 12,-217.497 6,-217.497 -2.84217e-14,-211.497 -2.84217e-14,-205.497 -2.84217e-14,-205.497 -2.84217e-14,-16.4968 -2.84217e-14,-16.4968 -2.84217e-14,-10.4968 6,-4.4968 12,-4.4968"/>
<text text-anchor="middle" x="60" y="-202.297" font-family="Times,serif" font-size="14.00">LogFilesController</text>
<polyline fill="none" stroke="black" points="-2.84217e-14,-194.497 120,-194.497 "/>
<text text-anchor="start" x="8" y="-179.297" font-family="Times,serif" font-size="14.00">create</text>
<text text-anchor="start" x="8" y="-164.297" font-family="Times,serif" font-size="14.00">destroy</text>
<text text-anchor="start" x="8" y="-149.297" font-family="Times,serif" font-size="14.00">edit</text>
<text text-anchor="start" x="8" y="-134.297" font-family="Times,serif" font-size="14.00">index</text>
<text text-anchor="start" x="8" y="-119.297" font-family="Times,serif" font-size="14.00">new</text>
<text text-anchor="start" x="8" y="-104.297" font-family="Times,serif" font-size="14.00">show</text>
<text text-anchor="start" x="8" y="-89.2968" font-family="Times,serif" font-size="14.00">update</text>
<polyline fill="none" stroke="black" points="-2.84217e-14,-81.4968 120,-81.4968 "/>
<polyline fill="none" stroke="black" points="-2.84217e-14,-57.4968 120,-57.4968 "/>
<text text-anchor="start" x="8" y="-42.2968" font-family="Times,serif" font-size="14.00">_layout</text>
<text text-anchor="start" x="8" y="-27.2968" font-family="Times,serif" font-size="14.00">log_file_params</text>
<text text-anchor="start" x="8" y="-12.2968" font-family="Times,serif" font-size="14.00">set_log_file</text>
</g>
<!-- ApplicationController -->
<g id="node3" class="node"><title>ApplicationController</title>
<path fill="none" stroke="black" d="M122.656,-236.196C122.656,-236.196 292.656,-236.196 292.656,-236.196 298.656,-236.196 304.656,-242.196 304.656,-248.196 304.656,-248.196 304.656,-331.196 304.656,-331.196 304.656,-337.196 298.656,-343.196 292.656,-343.196 292.656,-343.196 122.656,-343.196 122.656,-343.196 116.656,-343.196 110.656,-337.196 110.656,-331.196 110.656,-331.196 110.656,-248.196 110.656,-248.196 110.656,-242.196 116.656,-236.196 122.656,-236.196"/>
<text text-anchor="middle" x="207.656" y="-327.996" font-family="Times,serif" font-size="14.00">ApplicationController</text>
<polyline fill="none" stroke="black" points="110.656,-320.196 304.656,-320.196 "/>
<text text-anchor="start" x="118.656" y="-304.996" font-family="Times,serif" font-size="14.00">get_log_files_by_id</text>
<text text-anchor="start" x="118.656" y="-289.996" font-family="Times,serif" font-size="14.00">get_user_name_by_id</text>
<polyline fill="none" stroke="black" points="110.656,-282.196 304.656,-282.196 "/>
<text text-anchor="start" x="118.656" y="-266.996" font-family="Times,serif" font-size="14.00">configure_permitted_parameters</text>
<polyline fill="none" stroke="black" points="110.656,-259.196 304.656,-259.196 "/>
<text text-anchor="start" x="118.656" y="-243.996" font-family="Times,serif" font-size="14.00">_layout</text>
</g>
<!-- ApplicationController&#45;&gt;LogFilesController -->
<g id="edge1" class="edge"><title>ApplicationController&#45;&gt;LogFilesController</title>
<path fill="none" stroke="black" d="M163.354,-236.08C149.763,-219.631 134.573,-201.247 120.111,-183.745"/>
</g>
<!-- AccessTypesController -->
<g id="node4" class="node"><title>AccessTypesController</title>
<path fill="none" stroke="black" d="M285.008,-0.5C285.008,-0.5 404.008,-0.5 404.008,-0.5 410.008,-0.5 416.008,-6.5 416.008,-12.5 416.008,-12.5 416.008,-201.5 416.008,-201.5 416.008,-207.5 410.008,-213.5 404.008,-213.5 404.008,-213.5 285.008,-213.5 285.008,-213.5 279.008,-213.5 273.008,-207.5 273.008,-201.5 273.008,-201.5 273.008,-12.5 273.008,-12.5 273.008,-6.5 279.008,-0.5 285.008,-0.5"/>
<text text-anchor="middle" x="344.508" y="-198.3" font-family="Times,serif" font-size="14.00">AccessTypesController</text>
<polyline fill="none" stroke="black" points="273.008,-190.5 416.008,-190.5 "/>
<text text-anchor="start" x="281.008" y="-175.3" font-family="Times,serif" font-size="14.00">create</text>
<text text-anchor="start" x="281.008" y="-160.3" font-family="Times,serif" font-size="14.00">destroy</text>
<text text-anchor="start" x="281.008" y="-145.3" font-family="Times,serif" font-size="14.00">edit</text>
<text text-anchor="start" x="281.008" y="-130.3" font-family="Times,serif" font-size="14.00">index</text>
<text text-anchor="start" x="281.008" y="-115.3" font-family="Times,serif" font-size="14.00">new</text>
<text text-anchor="start" x="281.008" y="-100.3" font-family="Times,serif" font-size="14.00">show</text>
<text text-anchor="start" x="281.008" y="-85.3" font-family="Times,serif" font-size="14.00">update</text>
<polyline fill="none" stroke="black" points="273.008,-77.5 416.008,-77.5 "/>
<polyline fill="none" stroke="black" points="273.008,-53.5 416.008,-53.5 "/>
<text text-anchor="start" x="281.008" y="-38.3" font-family="Times,serif" font-size="14.00">_layout</text>
<text text-anchor="start" x="281.008" y="-23.3" font-family="Times,serif" font-size="14.00">access_type_params</text>
<text text-anchor="start" x="281.008" y="-8.3" font-family="Times,serif" font-size="14.00">set_access_type</text>
</g>
<!-- ApplicationController&#45;&gt;AccessTypesController -->
<g id="edge2" class="edge"><title>ApplicationController&#45;&gt;AccessTypesController</title>
<path fill="none" stroke="black" d="M247.976,-235.869C255.86,-225.343 264.347,-214.014 272.901,-202.595"/>
</g>
<!-- ReportsController -->
<g id="node5" class="node"><title>ReportsController</title>
<path fill="none" stroke="black" d="M16.9138,-415.294C16.9138,-415.294 106.914,-415.294 106.914,-415.294 112.914,-415.294 118.914,-421.294 118.914,-427.294 118.914,-427.294 118.914,-511.294 118.914,-511.294 118.914,-517.294 112.914,-523.294 106.914,-523.294 106.914,-523.294 16.9138,-523.294 16.9138,-523.294 10.9138,-523.294 4.91385,-517.294 4.91385,-511.294 4.91385,-511.294 4.91385,-427.294 4.91385,-427.294 4.91385,-421.294 10.9138,-415.294 16.9138,-415.294"/>
<text text-anchor="middle" x="61.9138" y="-508.094" font-family="Times,serif" font-size="14.00">ReportsController</text>
<polyline fill="none" stroke="black" points="4.91385,-500.294 118.914,-500.294 "/>
<text text-anchor="start" x="12.9138" y="-485.094" font-family="Times,serif" font-size="14.00">index</text>
<text text-anchor="start" x="12.9138" y="-470.094" font-family="Times,serif" font-size="14.00">show</text>
<polyline fill="none" stroke="black" points="4.91385,-462.294 118.914,-462.294 "/>
<polyline fill="none" stroke="black" points="4.91385,-438.294 118.914,-438.294 "/>
<text text-anchor="start" x="12.9138" y="-423.094" font-family="Times,serif" font-size="14.00">_layout</text>
</g>
<!-- ApplicationController&#45;&gt;ReportsController -->
<g id="edge3" class="edge"><title>ApplicationController&#45;&gt;ReportsController</title>
<path fill="none" stroke="black" d="M163.929,-343.581C145.566,-366.209 124.248,-392.48 105.862,-415.137"/>
</g>
<!-- UsersController -->
<g id="node7" class="node"><title>UsersController</title>
<path fill="none" stroke="black" d="M303.38,-354.938C303.38,-354.938 390.38,-354.938 390.38,-354.938 396.38,-354.938 402.38,-360.938 402.38,-366.938 402.38,-366.938 402.38,-570.938 402.38,-570.938 402.38,-576.938 396.38,-582.938 390.38,-582.938 390.38,-582.938 303.38,-582.938 303.38,-582.938 297.38,-582.938 291.38,-576.938 291.38,-570.938 291.38,-570.938 291.38,-366.938 291.38,-366.938 291.38,-360.938 297.38,-354.938 303.38,-354.938"/>
<text text-anchor="middle" x="346.88" y="-567.738" font-family="Times,serif" font-size="14.00">UsersController</text>
<polyline fill="none" stroke="black" points="291.38,-559.938 402.38,-559.938 "/>
<text text-anchor="start" x="299.38" y="-544.738" font-family="Times,serif" font-size="14.00">create</text>
<text text-anchor="start" x="299.38" y="-529.738" font-family="Times,serif" font-size="14.00">destroy</text>
<text text-anchor="start" x="299.38" y="-514.738" font-family="Times,serif" font-size="14.00">edit</text>
<text text-anchor="start" x="299.38" y="-499.738" font-family="Times,serif" font-size="14.00">index</text>
<text text-anchor="start" x="299.38" y="-484.738" font-family="Times,serif" font-size="14.00">new</text>
<text text-anchor="start" x="299.38" y="-469.738" font-family="Times,serif" font-size="14.00">show</text>
<text text-anchor="start" x="299.38" y="-454.738" font-family="Times,serif" font-size="14.00">update</text>
<polyline fill="none" stroke="black" points="291.38,-446.938 402.38,-446.938 "/>
<polyline fill="none" stroke="black" points="291.38,-422.938 402.38,-422.938 "/>
<text text-anchor="start" x="299.38" y="-407.738" font-family="Times,serif" font-size="14.00">_layout</text>
<text text-anchor="start" x="299.38" y="-392.738" font-family="Times,serif" font-size="14.00">needs_password?</text>
<text text-anchor="start" x="299.38" y="-377.738" font-family="Times,serif" font-size="14.00">set_user</text>
<text text-anchor="start" x="299.38" y="-362.738" font-family="Times,serif" font-size="14.00">user_params</text>
</g>
<!-- ApplicationController&#45;&gt;UsersController -->
<g id="edge5" class="edge"><title>ApplicationController&#45;&gt;UsersController</title>
<path fill="none" stroke="black" d="M249.428,-343.474C262.564,-360.386 277.283,-379.336 291.224,-397.284"/>
</g>
<!-- OmniauthCallbacksController -->
<g id="node6" class="node"><title>OmniauthCallbacksController</title>
<path fill="none" stroke="black" d="M493,-37.5C493,-37.5 649,-37.5 649,-37.5 655,-37.5 661,-43.5 661,-49.5 661,-49.5 661,-133.5 661,-133.5 661,-139.5 655,-145.5 649,-145.5 649,-145.5 493,-145.5 493,-145.5 487,-145.5 481,-139.5 481,-133.5 481,-133.5 481,-49.5 481,-49.5 481,-43.5 487,-37.5 493,-37.5"/>
<text text-anchor="middle" x="571" y="-130.3" font-family="Times,serif" font-size="14.00">OmniauthCallbacksController</text>
<polyline fill="none" stroke="black" points="481,-122.5 661,-122.5 "/>
<text text-anchor="start" x="489" y="-107.3" font-family="Times,serif" font-size="14.00">all</text>
<text text-anchor="start" x="489" y="-92.3" font-family="Times,serif" font-size="14.00">github</text>
<polyline fill="none" stroke="black" points="481,-84.5 661,-84.5 "/>
<polyline fill="none" stroke="black" points="481,-60.5 661,-60.5 "/>
<text text-anchor="start" x="489" y="-45.3" font-family="Times,serif" font-size="14.00">_layout</text>
</g>
<!-- Devise::OmniauthCallbacksController -->
<g id="node8" class="node"><title>Devise::OmniauthCallbacksController</title>
<ellipse fill="none" stroke="black" cx="825.015" cy="-91.4998" rx="146.474" ry="18"/>
<text text-anchor="middle" x="825.015" y="-87.7998" font-family="Times,serif" font-size="14.00">Devise::OmniauthCallbacksController</text>
</g>
<!-- Devise::OmniauthCallbacksController&#45;&gt;OmniauthCallbacksController -->
<g id="edge4" class="edge"><title>Devise::OmniauthCallbacksController&#45;&gt;OmniauthCallbacksController</title>
<path fill="none" stroke="black" d="M678.725,-91.4999C672.77,-91.4999 666.872,-91.4999 661.087,-91.4999"/>
</g>
</g>
</svg>
