<?xml version="1.0" encoding="UTF-8" standalone="no"?>
<!DOCTYPE svg PUBLIC "-//W3C//DTD SVG 1.1//EN"
 "http://www.w3.org/Graphics/SVG/1.1/DTD/svg11.dtd">
<!-- Generated by graphviz version 2.36.0 (20140111.2315)
 -->
<!-- Title: controllers_diagram Pages: 1 -->
<svg width="916pt" height="633pt"
 viewBox="0.00 0.00 916.25 633.31" xmlns="http://www.w3.org/2000/svg" xmlns:xlink="http://www.w3.org/1999/xlink">
<g id="graph0" class="graph" transform="scale(1 1) rotate(0) translate(4 629.306)">
<title>controllers_diagram</title>
<polygon fill="white" stroke="none" points="-4,4 -4,-629.306 912.252,-629.306 912.252,4 -4,4"/>
<!-- _diagram_info -->
<g id="node1" class="node"><title>_diagram_info</title>
<text text-anchor="start" x="426" y="-557.6" font-family="Times,serif" font-size="13.00">Controllers diagram</text>
<text text-anchor="start" x="426" y="-543.6" font-family="Times,serif" font-size="13.00">Date: Sep 11 2014 &#45; 00:16</text>
<text text-anchor="start" x="426" y="-529.6" font-family="Times,serif" font-size="13.00">Migration version: 20140906170502</text>
<text text-anchor="start" x="426" y="-515.6" font-family="Times,serif" font-size="13.00">Generated by RailRoady 1.1.2</text>
<text text-anchor="start" x="426" y="-501.6" font-family="Times,serif" font-size="13.00">http://railroady.prestonlee.com</text>
</g>
<!-- LogFilesController -->
<g id="node2" class="node"><title>LogFilesController</title>
<path fill="none" stroke="black" d="M12,-83.6209C12,-83.6209 108,-83.6209 108,-83.6209 114,-83.6209 120,-89.6209 120,-95.6209 120,-95.6209 120,-284.621 120,-284.621 120,-290.621 114,-296.621 108,-296.621 108,-296.621 12,-296.621 12,-296.621 6,-296.621 -2.84217e-14,-290.621 -2.84217e-14,-284.621 -2.84217e-14,-284.621 -2.84217e-14,-95.6209 -2.84217e-14,-95.6209 -2.84217e-14,-89.6209 6,-83.6209 12,-83.6209"/>
<text text-anchor="middle" x="60" y="-281.421" font-family="Times,serif" font-size="14.00">LogFilesController</text>
<polyline fill="none" stroke="black" points="-2.84217e-14,-273.621 120,-273.621 "/>
<text text-anchor="start" x="8" y="-258.421" font-family="Times,serif" font-size="14.00">create</text>
<text text-anchor="start" x="8" y="-243.421" font-family="Times,serif" font-size="14.00">destroy</text>
<text text-anchor="start" x="8" y="-228.421" font-family="Times,serif" font-size="14.00">edit</text>
<text text-anchor="start" x="8" y="-213.421" font-family="Times,serif" font-size="14.00">index</text>
<text text-anchor="start" x="8" y="-198.421" font-family="Times,serif" font-size="14.00">new</text>
<text text-anchor="start" x="8" y="-183.421" font-family="Times,serif" font-size="14.00">show</text>
<text text-anchor="start" x="8" y="-168.421" font-family="Times,serif" font-size="14.00">update</text>
<polyline fill="none" stroke="black" points="-2.84217e-14,-160.621 120,-160.621 "/>
<polyline fill="none" stroke="black" points="-2.84217e-14,-136.621 120,-136.621 "/>
<text text-anchor="start" x="8" y="-121.421" font-family="Times,serif" font-size="14.00">_layout</text>
<text text-anchor="start" x="8" y="-106.421" font-family="Times,serif" font-size="14.00">log_file_params</text>
<text text-anchor="start" x="8" y="-91.4209" font-family="Times,serif" font-size="14.00">set_log_file</text>
</g>
<!-- ApplicationController -->
<g id="node3" class="node"><title>ApplicationController</title>
<path fill="none" stroke="black" d="M238.955,-337.416C238.955,-337.416 408.955,-337.416 408.955,-337.416 414.955,-337.416 420.955,-343.416 420.955,-349.416 420.955,-349.416 420.955,-432.416 420.955,-432.416 420.955,-438.416 414.955,-444.416 408.955,-444.416 408.955,-444.416 238.955,-444.416 238.955,-444.416 232.955,-444.416 226.955,-438.416 226.955,-432.416 226.955,-432.416 226.955,-349.416 226.955,-349.416 226.955,-343.416 232.955,-337.416 238.955,-337.416"/>
<text text-anchor="middle" x="323.955" y="-429.216" font-family="Times,serif" font-size="14.00">ApplicationController</text>
<polyline fill="none" stroke="black" points="226.955,-421.416 420.955,-421.416 "/>
<text text-anchor="start" x="234.955" y="-406.216" font-family="Times,serif" font-size="14.00">get_log_files_by_id</text>
<text text-anchor="start" x="234.955" y="-391.216" font-family="Times,serif" font-size="14.00">get_user_name_by_id</text>
<polyline fill="none" stroke="black" points="226.955,-383.416 420.955,-383.416 "/>
<text text-anchor="start" x="234.955" y="-368.216" font-family="Times,serif" font-size="14.00">configure_permitted_parameters</text>
<polyline fill="none" stroke="black" points="226.955,-360.416 420.955,-360.416 "/>
<text text-anchor="start" x="234.955" y="-345.216" font-family="Times,serif" font-size="14.00">_layout</text>
</g>
<!-- ApplicationController&#45;&gt;LogFilesController -->
<g id="edge1" class="edge"><title>ApplicationController&#45;&gt;LogFilesController</title>
<path fill="none" stroke="black" d="M253.567,-337.37C212.027,-305.77 159.993,-266.187 120.339,-236.022"/>
</g>
<!-- AccessTypesController -->
<g id="node4" class="node"><title>AccessTypesController</title>
<path fill="none" stroke="black" d="M223.429,-0.5C223.429,-0.5 342.429,-0.5 342.429,-0.5 348.429,-0.5 354.429,-6.5 354.429,-12.5 354.429,-12.5 354.429,-201.5 354.429,-201.5 354.429,-207.5 348.429,-213.5 342.429,-213.5 342.429,-213.5 223.429,-213.5 223.429,-213.5 217.429,-213.5 211.429,-207.5 211.429,-201.5 211.429,-201.5 211.429,-12.5 211.429,-12.5 211.429,-6.5 217.429,-0.5 223.429,-0.5"/>
<text text-anchor="middle" x="282.929" y="-198.3" font-family="Times,serif" font-size="14.00">AccessTypesController</text>
<polyline fill="none" stroke="black" points="211.429,-190.5 354.429,-190.5 "/>
<text text-anchor="start" x="219.429" y="-175.3" font-family="Times,serif" font-size="14.00">create</text>
<text text-anchor="start" x="219.429" y="-160.3" font-family="Times,serif" font-size="14.00">destroy</text>
<text text-anchor="start" x="219.429" y="-145.3" font-family="Times,serif" font-size="14.00">edit</text>
<text text-anchor="start" x="219.429" y="-130.3" font-family="Times,serif" font-size="14.00">index</text>
<text text-anchor="start" x="219.429" y="-115.3" font-family="Times,serif" font-size="14.00">new</text>
<text text-anchor="start" x="219.429" y="-100.3" font-family="Times,serif" font-size="14.00">show</text>
<text text-anchor="start" x="219.429" y="-85.3" font-family="Times,serif" font-size="14.00">update</text>
<polyline fill="none" stroke="black" points="211.429,-77.5 354.429,-77.5 "/>
<polyline fill="none" stroke="black" points="211.429,-53.5 354.429,-53.5 "/>
<text text-anchor="start" x="219.429" y="-38.3" font-family="Times,serif" font-size="14.00">_layout</text>
<text text-anchor="start" x="219.429" y="-23.3" font-family="Times,serif" font-size="14.00">access_type_params</text>
<text text-anchor="start" x="219.429" y="-8.3" font-family="Times,serif" font-size="14.00">set_access_type</text>
</g>
<!-- ApplicationController&#45;&gt;AccessTypesController -->
<g id="edge2" class="edge"><title>ApplicationController&#45;&gt;AccessTypesController</title>
<path fill="none" stroke="black" d="M316.19,-337.179C311.161,-302.375 304.438,-255.847 298.352,-213.735"/>
</g>
<!-- UsersController -->
<g id="node6" class="node"><title>UsersController</title>
<path fill="none" stroke="black" d="M86.3251,-396.806C86.3251,-396.806 173.325,-396.806 173.325,-396.806 179.325,-396.806 185.325,-402.806 185.325,-408.806 185.325,-408.806 185.325,-612.806 185.325,-612.806 185.325,-618.806 179.325,-624.806 173.325,-624.806 173.325,-624.806 86.3251,-624.806 86.3251,-624.806 80.3251,-624.806 74.3251,-618.806 74.3251,-612.806 74.3251,-612.806 74.3251,-408.806 74.3251,-408.806 74.3251,-402.806 80.3251,-396.806 86.3251,-396.806"/>
<text text-anchor="middle" x="129.825" y="-609.606" font-family="Times,serif" font-size="14.00">UsersController</text>
<polyline fill="none" stroke="black" points="74.3251,-601.806 185.325,-601.806 "/>
<text text-anchor="start" x="82.3251" y="-586.606" font-family="Times,serif" font-size="14.00">create</text>
<text text-anchor="start" x="82.3251" y="-571.606" font-family="Times,serif" font-size="14.00">destroy</text>
<text text-anchor="start" x="82.3251" y="-556.606" font-family="Times,serif" font-size="14.00">edit</text>
<text text-anchor="start" x="82.3251" y="-541.606" font-family="Times,serif" font-size="14.00">index</text>
<text text-anchor="start" x="82.3251" y="-526.606" font-family="Times,serif" font-size="14.00">new</text>
<text text-anchor="start" x="82.3251" y="-511.606" font-family="Times,serif" font-size="14.00">show</text>
<text text-anchor="start" x="82.3251" y="-496.606" font-family="Times,serif" font-size="14.00">update</text>
<polyline fill="none" stroke="black" points="74.3251,-488.806 185.325,-488.806 "/>
<polyline fill="none" stroke="black" points="74.3251,-464.806 185.325,-464.806 "/>
<text text-anchor="start" x="82.3251" y="-449.606" font-family="Times,serif" font-size="14.00">_layout</text>
<text text-anchor="start" x="82.3251" y="-434.606" font-family="Times,serif" font-size="14.00">needs_password?</text>
<text text-anchor="start" x="82.3251" y="-419.606" font-family="Times,serif" font-size="14.00">set_user</text>
<text text-anchor="start" x="82.3251" y="-404.606" font-family="Times,serif" font-size="14.00">user_params</text>
</g>
<!-- ApplicationController&#45;&gt;UsersController -->
<g id="edge4" class="edge"><title>ApplicationController&#45;&gt;UsersController</title>
<path fill="none" stroke="black" d="M237.111,-444.549C219.545,-455.397 201.527,-466.524 185.394,-476.488"/>
</g>
<!-- OmniauthCallbacksController -->
<g id="node5" class="node"><title>OmniauthCallbacksController</title>
<path fill="none" stroke="black" d="M430,-114.5C430,-114.5 586,-114.5 586,-114.5 592,-114.5 598,-120.5 598,-126.5 598,-126.5 598,-210.5 598,-210.5 598,-216.5 592,-222.5 586,-222.5 586,-222.5 430,-222.5 430,-222.5 424,-222.5 418,-216.5 418,-210.5 418,-210.5 418,-126.5 418,-126.5 418,-120.5 424,-114.5 430,-114.5"/>
<text text-anchor="middle" x="508" y="-207.3" font-family="Times,serif" font-size="14.00">OmniauthCallbacksController</text>
<polyline fill="none" stroke="black" points="418,-199.5 598,-199.5 "/>
<text text-anchor="start" x="426" y="-184.3" font-family="Times,serif" font-size="14.00">all</text>
<text text-anchor="start" x="426" y="-169.3" font-family="Times,serif" font-size="14.00">github</text>
<polyline fill="none" stroke="black" points="418,-161.5 598,-161.5 "/>
<polyline fill="none" stroke="black" points="418,-137.5 598,-137.5 "/>
<text text-anchor="start" x="426" y="-122.3" font-family="Times,serif" font-size="14.00">_layout</text>
</g>
<!-- Devise::OmniauthCallbacksController -->
<g id="node7" class="node"><title>Devise::OmniauthCallbacksController</title>
<ellipse fill="none" stroke="black" cx="762.015" cy="-168.5" rx="146.474" ry="18"/>
<text text-anchor="middle" x="762.015" y="-164.8" font-family="Times,serif" font-size="14.00">Devise::OmniauthCallbacksController</text>
</g>
<!-- Devise::OmniauthCallbacksController&#45;&gt;OmniauthCallbacksController -->
<g id="edge3" class="edge"><title>Devise::OmniauthCallbacksController&#45;&gt;OmniauthCallbacksController</title>
<path fill="none" stroke="black" d="M615.725,-168.5C609.77,-168.5 603.872,-168.5 598.087,-168.5"/>
</g>
</g>
</svg>
