<?xml version="1.0" encoding="UTF-8" standalone="no"?>
<!DOCTYPE svg PUBLIC "-//W3C//DTD SVG 1.1//EN"
 "http://www.w3.org/Graphics/SVG/1.1/DTD/svg11.dtd">
<!-- Generated by graphviz version 2.36.0 (20140111.2315)
 -->
<!-- Title: models_diagram Pages: 1 -->
<svg width="1351pt" height="1004pt"
 viewBox="0.00 0.00 1351.00 1004.00" xmlns="http://www.w3.org/2000/svg" xmlns:xlink="http://www.w3.org/1999/xlink">
<g id="graph0" class="graph" transform="scale(1 1) rotate(0) translate(4 1000)">
<title>models_diagram</title>
<polygon fill="white" stroke="none" points="-4,4 -4,-1000 1347,-1000 1347,4 -4,4"/>
<!-- _diagram_info -->
<g id="node1" class="node"><title>_diagram_info</title>
<text text-anchor="start" x="289" y="-981.6" font-family="Times,serif" font-size="13.00">Models diagram</text>
<text text-anchor="start" x="289" y="-967.6" font-family="Times,serif" font-size="13.00">Date: Sep 11 2014 &#45; 00:16</text>
<text text-anchor="start" x="289" y="-953.6" font-family="Times,serif" font-size="13.00">Migration version: 20140906170502</text>
<text text-anchor="start" x="289" y="-939.6" font-family="Times,serif" font-size="13.00">Generated by RailRoady 1.1.2</text>
<text text-anchor="start" x="289" y="-925.6" font-family="Times,serif" font-size="13.00">http://railroady.prestonlee.com</text>
</g>
<!-- AccessType -->
<g id="node2" class="node"><title>AccessType</title>
<path fill="none" stroke="black" d="M298.5,-234C298.5,-234 405.5,-234 405.5,-234 411.5,-234 417.5,-240 417.5,-246 417.5,-246 417.5,-328 417.5,-328 417.5,-334 411.5,-340 405.5,-340 405.5,-340 298.5,-340 298.5,-340 292.5,-340 286.5,-334 286.5,-328 286.5,-328 286.5,-246 286.5,-246 286.5,-240 292.5,-234 298.5,-234"/>
<text text-anchor="middle" x="352" y="-324.8" font-family="Times,serif" font-size="14.00">AccessType</text>
<polyline fill="none" stroke="black" points="286.5,-317 417.5,-317 "/>
<text text-anchor="start" x="294.5" y="-301.8" font-family="Times,serif" font-size="14.00">id :integer</text>
<text text-anchor="start" x="294.5" y="-286.8" font-family="Times,serif" font-size="14.00">name :string</text>
<text text-anchor="start" x="294.5" y="-271.8" font-family="Times,serif" font-size="14.00">description :string</text>
<text text-anchor="start" x="294.5" y="-256.8" font-family="Times,serif" font-size="14.00">created_at :datetime</text>
<text text-anchor="start" x="294.5" y="-241.8" font-family="Times,serif" font-size="14.00">updated_at :datetime</text>
</g>
<!-- PoolStatistic -->
<g id="node3" class="node"><title>PoolStatistic</title>
<path fill="none" stroke="black" d="M252.5,-38C252.5,-38 359.5,-38 359.5,-38 365.5,-38 371.5,-44 371.5,-50 371.5,-50 371.5,-132 371.5,-132 371.5,-138 365.5,-144 359.5,-144 359.5,-144 252.5,-144 252.5,-144 246.5,-144 240.5,-138 240.5,-132 240.5,-132 240.5,-50 240.5,-50 240.5,-44 246.5,-38 252.5,-38"/>
<text text-anchor="middle" x="306" y="-128.8" font-family="Times,serif" font-size="14.00">PoolStatistic</text>
<polyline fill="none" stroke="black" points="240.5,-121 371.5,-121 "/>
<text text-anchor="start" x="248.5" y="-105.8" font-family="Times,serif" font-size="14.00">id :integer</text>
<text text-anchor="start" x="248.5" y="-90.8" font-family="Times,serif" font-size="14.00">stats :string</text>
<text text-anchor="start" x="248.5" y="-75.8" font-family="Times,serif" font-size="14.00">pool_id :integer</text>
<text text-anchor="start" x="248.5" y="-60.8" font-family="Times,serif" font-size="14.00">created_at :datetime</text>
<text text-anchor="start" x="248.5" y="-45.8" font-family="Times,serif" font-size="14.00">updated_at :datetime</text>
</g>
<!-- GraphicsProcessingUnitStat -->
<g id="node4" class="node"><title>GraphicsProcessingUnitStat</title>
<path fill="none" stroke="black" d="M11.5,-0.5C11.5,-0.5 204.5,-0.5 204.5,-0.5 210.5,-0.5 216.5,-6.5 216.5,-12.5 216.5,-12.5 216.5,-169.5 216.5,-169.5 216.5,-175.5 210.5,-181.5 204.5,-181.5 204.5,-181.5 11.5,-181.5 11.5,-181.5 5.5,-181.5 -0.5,-175.5 -0.5,-169.5 -0.5,-169.5 -0.5,-12.5 -0.5,-12.5 -0.5,-6.5 5.5,-0.5 11.5,-0.5"/>
<text text-anchor="middle" x="108" y="-166.3" font-family="Times,serif" font-size="14.00">GraphicsProcessingUnitStat</text>
<polyline fill="none" stroke="black" points="-0.5,-158.5 216.5,-158.5 "/>
<text text-anchor="start" x="7.5" y="-143.3" font-family="Times,serif" font-size="14.00">id :integer</text>
<text text-anchor="start" x="7.5" y="-128.3" font-family="Times,serif" font-size="14.00">average :string</text>
<text text-anchor="start" x="7.5" y="-113.3" font-family="Times,serif" font-size="14.00">accepted :integer</text>
<text text-anchor="start" x="7.5" y="-98.3" font-family="Times,serif" font-size="14.00">rejected :integer</text>
<text text-anchor="start" x="7.5" y="-83.3" font-family="Times,serif" font-size="14.00">hardware_errors :integer</text>
<text text-anchor="start" x="7.5" y="-68.3" font-family="Times,serif" font-size="14.00">work_utility :string</text>
<text text-anchor="start" x="7.5" y="-53.3" font-family="Times,serif" font-size="14.00">last_five_seconds :string</text>
<text text-anchor="start" x="7.5" y="-38.3" font-family="Times,serif" font-size="14.00">created_at :datetime</text>
<text text-anchor="start" x="7.5" y="-23.3" font-family="Times,serif" font-size="14.00">updated_at :datetime</text>
<text text-anchor="start" x="7.5" y="-8.3" font-family="Times,serif" font-size="14.00">graphics_processing_unit_id :integer</text>
</g>
<!-- GraphicsProcessingUnit -->
<g id="node5" class="node"><title>GraphicsProcessingUnit</title>
<path fill="none" stroke="black" d="M94,-234C94,-234 218,-234 218,-234 224,-234 230,-240 230,-246 230,-246 230,-328 230,-328 230,-334 224,-340 218,-340 218,-340 94,-340 94,-340 88,-340 82,-334 82,-328 82,-328 82,-246 82,-246 82,-240 88,-234 94,-234"/>
<text text-anchor="middle" x="156" y="-324.8" font-family="Times,serif" font-size="14.00">GraphicsProcessingUnit</text>
<polyline fill="none" stroke="black" points="82,-317 230,-317 "/>
<text text-anchor="start" x="90" y="-301.8" font-family="Times,serif" font-size="14.00">id :integer</text>
<text text-anchor="start" x="90" y="-286.8" font-family="Times,serif" font-size="14.00">name :string</text>
<text text-anchor="start" x="90" y="-271.8" font-family="Times,serif" font-size="14.00">log_file_id :integer</text>
<text text-anchor="start" x="90" y="-256.8" font-family="Times,serif" font-size="14.00">created_at :datetime</text>
<text text-anchor="start" x="90" y="-241.8" font-family="Times,serif" font-size="14.00">updated_at :datetime</text>
</g>
<!-- GraphicsProcessingUnit&#45;&gt;GraphicsProcessingUnitStat -->
<g id="edge4" class="edge"><title>GraphicsProcessingUnit&#45;&gt;GraphicsProcessingUnitStat</title>
<path fill="none" stroke="#bf3f44" d="M141.08,-225.699C138.252,-214.268 135.226,-202.039 132.196,-189.794"/>
<ellipse fill="none" stroke="#bf3f44" cx="142.113" cy="-229.873" rx="4.00001" ry="4.00001"/>
<ellipse fill="#bf3f44" stroke="#bf3f44" cx="131.167" cy="-185.635" rx="4.00001" ry="4.00001"/>
</g>
<!-- Platform -->
<g id="node6" class="node"><title>Platform</title>
<path fill="none" stroke="black" d="M447.5,-219C447.5,-219 554.5,-219 554.5,-219 560.5,-219 566.5,-225 566.5,-231 566.5,-231 566.5,-343 566.5,-343 566.5,-349 560.5,-355 554.5,-355 554.5,-355 447.5,-355 447.5,-355 441.5,-355 435.5,-349 435.5,-343 435.5,-343 435.5,-231 435.5,-231 435.5,-225 441.5,-219 447.5,-219"/>
<text text-anchor="middle" x="501" y="-339.8" font-family="Times,serif" font-size="14.00">Platform</text>
<polyline fill="none" stroke="black" points="435.5,-332 566.5,-332 "/>
<text text-anchor="start" x="443.5" y="-316.8" font-family="Times,serif" font-size="14.00">id :integer</text>
<text text-anchor="start" x="443.5" y="-301.8" font-family="Times,serif" font-size="14.00">vendor :string</text>
<text text-anchor="start" x="443.5" y="-286.8" font-family="Times,serif" font-size="14.00">name :string</text>
<text text-anchor="start" x="443.5" y="-271.8" font-family="Times,serif" font-size="14.00">version :string</text>
<text text-anchor="start" x="443.5" y="-256.8" font-family="Times,serif" font-size="14.00">log_file_id :integer</text>
<text text-anchor="start" x="443.5" y="-241.8" font-family="Times,serif" font-size="14.00">created_at :datetime</text>
<text text-anchor="start" x="443.5" y="-226.8" font-family="Times,serif" font-size="14.00">updated_at :datetime</text>
</g>
<!-- LogEvent -->
<g id="node7" class="node"><title>LogEvent</title>
<path fill="none" stroke="black" d="M597,-219C597,-219 735,-219 735,-219 741,-219 747,-225 747,-231 747,-231 747,-343 747,-343 747,-349 741,-355 735,-355 735,-355 597,-355 597,-355 591,-355 585,-349 585,-343 585,-343 585,-231 585,-231 585,-225 591,-219 597,-219"/>
<text text-anchor="middle" x="666" y="-339.8" font-family="Times,serif" font-size="14.00">LogEvent</text>
<polyline fill="none" stroke="black" points="585,-332 747,-332 "/>
<text text-anchor="start" x="593" y="-316.8" font-family="Times,serif" font-size="14.00">id :integer</text>
<text text-anchor="start" x="593" y="-301.8" font-family="Times,serif" font-size="14.00">row_number :integer</text>
<text text-anchor="start" x="593" y="-286.8" font-family="Times,serif" font-size="14.00">event :string</text>
<text text-anchor="start" x="593" y="-271.8" font-family="Times,serif" font-size="14.00">log_event_type_id :integer</text>
<text text-anchor="start" x="593" y="-256.8" font-family="Times,serif" font-size="14.00">created_at :datetime</text>
<text text-anchor="start" x="593" y="-241.8" font-family="Times,serif" font-size="14.00">updated_at :datetime</text>
<text text-anchor="start" x="593" y="-226.8" font-family="Times,serif" font-size="14.00">log_file_id :integer</text>
</g>
<!-- Ability -->
<g id="node8" class="node"><title>Ability</title>
<polygon fill="none" stroke="black" points="1216.5,-708 1216.5,-754 1271.5,-754 1271.5,-708 1216.5,-708"/>
<text text-anchor="middle" x="1244" y="-738.8" font-family="Times,serif" font-size="14.00">Ability</text>
<polyline fill="none" stroke="black" points="1216.5,-731 1271.5,-731 "/>
<text text-anchor="middle" x="1244" y="-715.8" font-family="Times,serif" font-size="14.00"> </text>
</g>
<!-- RuntimeStatistic -->
<g id="node9" class="node"><title>RuntimeStatistic</title>
<path fill="none" stroke="black" d="M777.5,-234C777.5,-234 884.5,-234 884.5,-234 890.5,-234 896.5,-240 896.5,-246 896.5,-246 896.5,-328 896.5,-328 896.5,-334 890.5,-340 884.5,-340 884.5,-340 777.5,-340 777.5,-340 771.5,-340 765.5,-334 765.5,-328 765.5,-328 765.5,-246 765.5,-246 765.5,-240 771.5,-234 777.5,-234"/>
<text text-anchor="middle" x="831" y="-324.8" font-family="Times,serif" font-size="14.00">RuntimeStatistic</text>
<polyline fill="none" stroke="black" points="765.5,-317 896.5,-317 "/>
<text text-anchor="start" x="773.5" y="-301.8" font-family="Times,serif" font-size="14.00">id :integer</text>
<text text-anchor="start" x="773.5" y="-286.8" font-family="Times,serif" font-size="14.00">stats :string</text>
<text text-anchor="start" x="773.5" y="-271.8" font-family="Times,serif" font-size="14.00">log_file_id :integer</text>
<text text-anchor="start" x="773.5" y="-256.8" font-family="Times,serif" font-size="14.00">created_at :datetime</text>
<text text-anchor="start" x="773.5" y="-241.8" font-family="Times,serif" font-size="14.00">updated_at :datetime</text>
</g>
<!-- Pool -->
<g id="node10" class="node"><title>Pool</title>
<path fill="none" stroke="black" d="M926.5,-234C926.5,-234 1033.5,-234 1033.5,-234 1039.5,-234 1045.5,-240 1045.5,-246 1045.5,-246 1045.5,-328 1045.5,-328 1045.5,-334 1039.5,-340 1033.5,-340 1033.5,-340 926.5,-340 926.5,-340 920.5,-340 914.5,-334 914.5,-328 914.5,-328 914.5,-246 914.5,-246 914.5,-240 920.5,-234 926.5,-234"/>
<text text-anchor="middle" x="980" y="-324.8" font-family="Times,serif" font-size="14.00">Pool</text>
<polyline fill="none" stroke="black" points="914.5,-317 1045.5,-317 "/>
<text text-anchor="start" x="922.5" y="-301.8" font-family="Times,serif" font-size="14.00">id :integer</text>
<text text-anchor="start" x="922.5" y="-286.8" font-family="Times,serif" font-size="14.00">name :string</text>
<text text-anchor="start" x="922.5" y="-271.8" font-family="Times,serif" font-size="14.00">log_file_id :integer</text>
<text text-anchor="start" x="922.5" y="-256.8" font-family="Times,serif" font-size="14.00">created_at :datetime</text>
<text text-anchor="start" x="922.5" y="-241.8" font-family="Times,serif" font-size="14.00">updated_at :datetime</text>
</g>
<!-- Pool&#45;&gt;PoolStatistic -->
<g id="edge10" class="edge"><title>Pool&#45;&gt;PoolStatistic</title>
<path fill="none" stroke="#12bdeb" d="M922.769,-228.911C917.034,-224.825 911.076,-221.101 905,-218 731.63,-129.518 499.713,-103.149 381.776,-95.3072"/>
<ellipse fill="none" stroke="#12bdeb" cx="926.189" cy="-231.466" rx="4.00002" ry="4.00002"/>
<polygon fill="#12bdeb" stroke="#12bdeb" points="381.738,-95.3049 372.045,-90.1768 376.748,-94.9863 371.758,-94.6677 371.758,-94.6677 371.758,-94.6677 376.748,-94.9863 371.472,-99.1585 381.738,-95.3049 381.738,-95.3049"/>
</g>
<!-- LogEventType -->
<g id="node11" class="node"><title>LogEventType</title>
<path fill="none" stroke="black" d="M579.5,-422.5C579.5,-422.5 686.5,-422.5 686.5,-422.5 692.5,-422.5 698.5,-428.5 698.5,-434.5 698.5,-434.5 698.5,-501.5 698.5,-501.5 698.5,-507.5 692.5,-513.5 686.5,-513.5 686.5,-513.5 579.5,-513.5 579.5,-513.5 573.5,-513.5 567.5,-507.5 567.5,-501.5 567.5,-501.5 567.5,-434.5 567.5,-434.5 567.5,-428.5 573.5,-422.5 579.5,-422.5"/>
<text text-anchor="middle" x="633" y="-498.3" font-family="Times,serif" font-size="14.00">LogEventType</text>
<polyline fill="none" stroke="black" points="567.5,-490.5 698.5,-490.5 "/>
<text text-anchor="start" x="575.5" y="-475.3" font-family="Times,serif" font-size="14.00">id :integer</text>
<text text-anchor="start" x="575.5" y="-460.3" font-family="Times,serif" font-size="14.00">event_type :string</text>
<text text-anchor="start" x="575.5" y="-445.3" font-family="Times,serif" font-size="14.00">created_at :datetime</text>
<text text-anchor="start" x="575.5" y="-430.3" font-family="Times,serif" font-size="14.00">updated_at :datetime</text>
</g>
<!-- LogEventType&#45;&gt;LogEvent -->
<g id="edge12" class="edge"><title>LogEventType&#45;&gt;LogEvent</title>
<path fill="none" stroke="#d4d4b8" d="M642.771,-414.001C645.589,-398.714 648.724,-381.711 651.755,-365.27"/>
<ellipse fill="none" stroke="#d4d4b8" cx="641.967" cy="-418.359" rx="4.00001" ry="4.00001"/>
<polygon fill="#d4d4b8" stroke="#d4d4b8" points="651.812,-364.961 658.05,-355.942 652.718,-360.044 653.625,-355.126 653.625,-355.126 653.625,-355.126 652.718,-360.044 649.199,-354.311 651.812,-364.961 651.812,-364.961"/>
</g>
<!-- User -->
<g id="node12" class="node"><title>User</title>
<path fill="none" stroke="black" d="M672,-580.5C672,-580.5 848,-580.5 848,-580.5 854,-580.5 860,-586.5 860,-592.5 860,-592.5 860,-869.5 860,-869.5 860,-875.5 854,-881.5 848,-881.5 848,-881.5 672,-881.5 672,-881.5 666,-881.5 660,-875.5 660,-869.5 660,-869.5 660,-592.5 660,-592.5 660,-586.5 666,-580.5 672,-580.5"/>
<text text-anchor="middle" x="760" y="-866.3" font-family="Times,serif" font-size="14.00">User</text>
<polyline fill="none" stroke="black" points="660,-858.5 860,-858.5 "/>
<text text-anchor="start" x="668" y="-843.3" font-family="Times,serif" font-size="14.00">id :integer</text>
<text text-anchor="start" x="668" y="-828.3" font-family="Times,serif" font-size="14.00">email :string</text>
<text text-anchor="start" x="668" y="-813.3" font-family="Times,serif" font-size="14.00">encrypted_password :string</text>
<text text-anchor="start" x="668" y="-798.3" font-family="Times,serif" font-size="14.00">reset_password_token :string</text>
<text text-anchor="start" x="668" y="-783.3" font-family="Times,serif" font-size="14.00">reset_password_sent_at :datetime</text>
<text text-anchor="start" x="668" y="-768.3" font-family="Times,serif" font-size="14.00">remember_created_at :datetime</text>
<text text-anchor="start" x="668" y="-753.3" font-family="Times,serif" font-size="14.00">sign_in_count :integer</text>
<text text-anchor="start" x="668" y="-738.3" font-family="Times,serif" font-size="14.00">current_sign_in_at :datetime</text>
<text text-anchor="start" x="668" y="-723.3" font-family="Times,serif" font-size="14.00">last_sign_in_at :datetime</text>
<text text-anchor="start" x="668" y="-708.3" font-family="Times,serif" font-size="14.00">current_sign_in_ip :string</text>
<text text-anchor="start" x="668" y="-693.3" font-family="Times,serif" font-size="14.00">last_sign_in_ip :string</text>
<text text-anchor="start" x="668" y="-678.3" font-family="Times,serif" font-size="14.00">created_at :datetime</text>
<text text-anchor="start" x="668" y="-663.3" font-family="Times,serif" font-size="14.00">updated_at :datetime</text>
<text text-anchor="start" x="668" y="-648.3" font-family="Times,serif" font-size="14.00">username :string</text>
<text text-anchor="start" x="668" y="-633.3" font-family="Times,serif" font-size="14.00">avatar_url :string</text>
<text text-anchor="start" x="668" y="-618.3" font-family="Times,serif" font-size="14.00">is_admin :boolean</text>
<text text-anchor="start" x="668" y="-603.3" font-family="Times,serif" font-size="14.00">provider :string</text>
<text text-anchor="start" x="668" y="-588.3" font-family="Times,serif" font-size="14.00">uid :string</text>
</g>
<!-- LogFile -->
<g id="node13" class="node"><title>LogFile</title>
<path fill="none" stroke="black" d="M728.5,-392.5C728.5,-392.5 847.5,-392.5 847.5,-392.5 853.5,-392.5 859.5,-398.5 859.5,-404.5 859.5,-404.5 859.5,-531.5 859.5,-531.5 859.5,-537.5 853.5,-543.5 847.5,-543.5 847.5,-543.5 728.5,-543.5 728.5,-543.5 722.5,-543.5 716.5,-537.5 716.5,-531.5 716.5,-531.5 716.5,-404.5 716.5,-404.5 716.5,-398.5 722.5,-392.5 728.5,-392.5"/>
<text text-anchor="middle" x="788" y="-528.3" font-family="Times,serif" font-size="14.00">LogFile</text>
<polyline fill="none" stroke="black" points="716.5,-520.5 859.5,-520.5 "/>
<text text-anchor="start" x="724.5" y="-505.3" font-family="Times,serif" font-size="14.00">id :integer</text>
<text text-anchor="start" x="724.5" y="-490.3" font-family="Times,serif" font-size="14.00">name :string</text>
<text text-anchor="start" x="724.5" y="-475.3" font-family="Times,serif" font-size="14.00">description :string</text>
<text text-anchor="start" x="724.5" y="-460.3" font-family="Times,serif" font-size="14.00">created_at :datetime</text>
<text text-anchor="start" x="724.5" y="-445.3" font-family="Times,serif" font-size="14.00">updated_at :datetime</text>
<text text-anchor="start" x="724.5" y="-430.3" font-family="Times,serif" font-size="14.00">log_file :string</text>
<text text-anchor="start" x="724.5" y="-415.3" font-family="Times,serif" font-size="14.00">access_type_id :integer</text>
<text text-anchor="start" x="724.5" y="-400.3" font-family="Times,serif" font-size="14.00">user_id :integer</text>
</g>
<!-- User&#45;&gt;LogFile -->
<g id="edge14" class="edge"><title>User&#45;&gt;LogFile</title>
<path fill="none" stroke="#ca63ec" d="M776.899,-572.481C777.577,-566.153 778.247,-559.914 778.9,-553.827"/>
<ellipse fill="none" stroke="#ca63ec" cx="776.471" cy="-576.467" rx="4.00001" ry="4.00001"/>
<polygon fill="#ca63ec" stroke="#ca63ec" points="778.916,-553.679 784.457,-544.216 779.449,-548.708 779.982,-543.736 779.982,-543.736 779.982,-543.736 779.449,-548.708 775.508,-543.256 778.916,-553.679 778.916,-553.679"/>
</g>
<!-- LogFile&#45;&gt;AccessType -->
<g id="edge16" class="edge"><title>LogFile&#45;&gt;AccessType</title>
<path fill="none" stroke="#21997a" d="M709.045,-392.982C708.365,-392.647 707.684,-392.32 707,-392 592.933,-338.691 540.168,-409.093 426,-356 419.494,-352.974 413.168,-349.166 407.133,-344.904"/>
<ellipse fill="none" stroke="#21997a" cx="712.724" cy="-394.956" rx="4.00002" ry="4.00002"/>
<ellipse fill="#21997a" stroke="#21997a" cx="403.912" cy="-342.506" rx="4.00002" ry="4.00002"/>
</g>
<!-- LogFile&#45;&gt;GraphicsProcessingUnit -->
<g id="edge22" class="edge"><title>LogFile&#45;&gt;GraphicsProcessingUnit</title>
<path fill="none" stroke="#d8ea62" d="M709.065,-392.938C708.379,-392.617 707.69,-392.304 707,-392 531.518,-314.634 460.341,-412.265 277,-356 263.809,-351.952 250.465,-346.312 237.697,-339.996"/>
<ellipse fill="none" stroke="#d8ea62" cx="712.772" cy="-394.841" rx="4.00002" ry="4.00002"/>
<ellipse fill="#d8ea62" stroke="#d8ea62" cx="233.816" cy="-338.021" rx="4.00002" ry="4.00002"/>
</g>
<!-- LogFile&#45;&gt;Platform -->
<g id="edge18" class="edge"><title>LogFile&#45;&gt;Platform</title>
<path fill="none" stroke="#60998d" d="M709.382,-393.355C708.589,-392.894 707.796,-392.442 707,-392 654.232,-362.652 628.921,-385.072 576,-356 575.23,-355.577 574.461,-355.144 573.694,-354.703"/>
<ellipse fill="none" stroke="#60998d" cx="713.053" cy="-395.625" rx="4.00002" ry="4.00002"/>
<ellipse fill="#60998d" stroke="#60998d" cx="570.254" cy="-352.595" rx="4.00002" ry="4.00002"/>
</g>
<!-- LogFile&#45;&gt;LogEvent -->
<g id="edge23" class="edge"><title>LogFile&#45;&gt;LogEvent</title>
<path fill="none" stroke="#0e0793" d="M732.576,-385.681C727.559,-378.321 722.492,-370.886 717.512,-363.578"/>
<ellipse fill="none" stroke="#0e0793" cx="734.892" cy="-389.079" rx="4.00002" ry="4.00002"/>
<polygon fill="#0e0793" stroke="#0e0793" points="717.345,-363.333 715.431,-352.536 714.529,-359.202 711.713,-355.07 711.713,-355.07 711.713,-355.07 714.529,-359.202 707.994,-357.605 717.345,-363.333 717.345,-363.333"/>
</g>
<!-- LogFile&#45;&gt;RuntimeStatistic -->
<g id="edge20" class="edge"><title>LogFile&#45;&gt;RuntimeStatistic</title>
<path fill="none" stroke="#012a32" d="M807.813,-384.524C810.589,-372.967 813.403,-361.252 816.068,-350.158"/>
<ellipse fill="none" stroke="#012a32" cx="806.859" cy="-388.495" rx="4.00001" ry="4.00001"/>
<polygon fill="#012a32" stroke="#012a32" points="816.133,-349.889 822.844,-341.217 817.301,-345.027 818.469,-340.166 818.469,-340.166 818.469,-340.166 817.301,-345.027 814.093,-339.114 816.133,-349.889 816.133,-349.889"/>
</g>
<!-- LogFile&#45;&gt;Pool -->
<g id="edge21" class="edge"><title>LogFile&#45;&gt;Pool</title>
<path fill="none" stroke="#47c447" d="M865.799,-394.468C882.76,-378.656 900.508,-362.11 916.819,-346.903"/>
<ellipse fill="none" stroke="#47c447" cx="862.693" cy="-397.365" rx="4.00002" ry="4.00002"/>
<polygon fill="#47c447" stroke="#47c447" points="916.889,-346.838 927.272,-343.31 920.547,-343.428 924.204,-340.018 924.204,-340.018 924.204,-340.018 920.547,-343.428 921.135,-336.727 916.889,-346.838 916.889,-346.838"/>
</g>
<!-- Gpu -->
<g id="node14" class="node"><title>Gpu</title>
<path fill="none" stroke="black" d="M1075.5,-219C1075.5,-219 1182.5,-219 1182.5,-219 1188.5,-219 1194.5,-225 1194.5,-231 1194.5,-231 1194.5,-343 1194.5,-343 1194.5,-349 1188.5,-355 1182.5,-355 1182.5,-355 1075.5,-355 1075.5,-355 1069.5,-355 1063.5,-349 1063.5,-343 1063.5,-343 1063.5,-231 1063.5,-231 1063.5,-225 1069.5,-219 1075.5,-219"/>
<text text-anchor="middle" x="1129" y="-339.8" font-family="Times,serif" font-size="14.00">Gpu</text>
<polyline fill="none" stroke="black" points="1063.5,-332 1194.5,-332 "/>
<text text-anchor="start" x="1071.5" y="-316.8" font-family="Times,serif" font-size="14.00">id :integer</text>
<text text-anchor="start" x="1071.5" y="-301.8" font-family="Times,serif" font-size="14.00">UDID :string</text>
<text text-anchor="start" x="1071.5" y="-286.8" font-family="Times,serif" font-size="14.00">name :string</text>
<text text-anchor="start" x="1071.5" y="-271.8" font-family="Times,serif" font-size="14.00">vendorID :string</text>
<text text-anchor="start" x="1071.5" y="-256.8" font-family="Times,serif" font-size="14.00">log_file_id :integer</text>
<text text-anchor="start" x="1071.5" y="-241.8" font-family="Times,serif" font-size="14.00">created_at :datetime</text>
<text text-anchor="start" x="1071.5" y="-226.8" font-family="Times,serif" font-size="14.00">updated_at :datetime</text>
</g>
<!-- LogFile&#45;&gt;Gpu -->
<g id="edge19" class="edge"><title>LogFile&#45;&gt;Gpu</title>
<path fill="none" stroke="#aa7b7a" d="M867.149,-441.992C921.951,-422.799 995.303,-393.285 1054,-356 1054.29,-355.814 1054.58,-355.628 1054.88,-355.44"/>
<ellipse fill="none" stroke="#aa7b7a" cx="863.322" cy="-443.32" rx="4.00001" ry="4.00001"/>
<polygon fill="#aa7b7a" stroke="#aa7b7a" points="1055.04,-355.327 1065.84,-353.419 1059.17,-352.513 1063.31,-349.699 1063.31,-349.699 1063.31,-349.699 1059.17,-352.513 1060.77,-345.98 1055.04,-355.327 1055.04,-355.327"/>
</g>
<!-- ConfigFile -->
<g id="node15" class="node"><title>ConfigFile</title>
<path fill="none" stroke="black" d="M1224.5,-234C1224.5,-234 1331.5,-234 1331.5,-234 1337.5,-234 1343.5,-240 1343.5,-246 1343.5,-246 1343.5,-328 1343.5,-328 1343.5,-334 1337.5,-340 1331.5,-340 1331.5,-340 1224.5,-340 1224.5,-340 1218.5,-340 1212.5,-334 1212.5,-328 1212.5,-328 1212.5,-246 1212.5,-246 1212.5,-240 1218.5,-234 1224.5,-234"/>
<text text-anchor="middle" x="1278" y="-324.8" font-family="Times,serif" font-size="14.00">ConfigFile</text>
<polyline fill="none" stroke="black" points="1212.5,-317 1343.5,-317 "/>
<text text-anchor="start" x="1220.5" y="-301.8" font-family="Times,serif" font-size="14.00">id :integer</text>
<text text-anchor="start" x="1220.5" y="-286.8" font-family="Times,serif" font-size="14.00">json :text</text>
<text text-anchor="start" x="1220.5" y="-271.8" font-family="Times,serif" font-size="14.00">created_at :datetime</text>
<text text-anchor="start" x="1220.5" y="-256.8" font-family="Times,serif" font-size="14.00">updated_at :datetime</text>
<text text-anchor="start" x="1220.5" y="-241.8" font-family="Times,serif" font-size="14.00">log_file_id :integer</text>
</g>
<!-- LogFile&#45;&gt;ConfigFile -->
<g id="edge17" class="edge"><title>LogFile&#45;&gt;ConfigFile</title>
<path fill="none" stroke="#48f58c" d="M867.687,-457.121C954.443,-443.835 1095.2,-414.742 1203,-356 1208.88,-352.796 1214.67,-349.041 1220.27,-344.968"/>
<ellipse fill="none" stroke="#48f58c" cx="863.678" cy="-457.724" rx="4.00001" ry="4.00001"/>
<ellipse fill="#48f58c" stroke="#48f58c" cx="1223.56" cy="-342.473" rx="4.00002" ry="4.00002"/>
</g>
<!-- ActiveRecord::Base -->
<g id="node16" class="node"><title>ActiveRecord::Base</title>
<ellipse fill="none" stroke="black" cx="594" cy="-957" rx="81.3646" ry="18"/>
<text text-anchor="middle" x="594" y="-953.3" font-family="Times,serif" font-size="14.00">ActiveRecord::Base</text>
</g>
<!-- ActiveRecord::Base&#45;&gt;AccessType -->
<g id="edge1" class="edge"><title>ActiveRecord::Base&#45;&gt;AccessType</title>
<path fill="none" stroke="black" d="M559.598,-940.654C525.104,-924.583 475.381,-899.318 463,-882 342.346,-713.233 341.86,-450.761 347.885,-340.053"/>
</g>
<!-- ActiveRecord::Base&#45;&gt;PoolStatistic -->
<g id="edge2" class="edge"><title>ActiveRecord::Base&#45;&gt;PoolStatistic</title>
<path fill="none" stroke="black" d="M560.345,-940.445C543.388,-932.994 522.363,-924.338 503,-918 438.252,-896.807 399.915,-932.331 354,-882 162.077,-671.616 249.445,-284.104 289.68,-144.146"/>
</g>
<!-- ActiveRecord::Base&#45;&gt;GraphicsProcessingUnitStat -->
<g id="edge3" class="edge"><title>ActiveRecord::Base&#45;&gt;GraphicsProcessingUnitStat</title>
<path fill="none" stroke="black" d="M562.793,-940.225C545.587,-932.237 523.593,-923.16 503,-918 421.579,-897.599 186.556,-941.149 127,-882 -59.5304,-696.743 22.5425,-346.188 75.6146,-181.598"/>
</g>
<!-- ActiveRecord::Base&#45;&gt;GraphicsProcessingUnit -->
<g id="edge5" class="edge"><title>ActiveRecord::Base&#45;&gt;GraphicsProcessingUnit</title>
<path fill="none" stroke="black" d="M562.284,-940.384C545.114,-932.542 523.313,-923.553 503,-918 446.948,-902.678 285.273,-922.905 244,-882 96.093,-735.413 125.425,-455.939 145.456,-340.2"/>
</g>
<!-- ActiveRecord::Base&#45;&gt;Platform -->
<g id="edge6" class="edge"><title>ActiveRecord::Base&#45;&gt;Platform</title>
<path fill="none" stroke="black" d="M569.54,-939.766C551.943,-926.541 529.529,-906.145 519,-882 441.78,-704.914 467.894,-469.088 487.49,-355.196"/>
</g>
<!-- ActiveRecord::Base&#45;&gt;LogEvent -->
<g id="edge7" class="edge"><title>ActiveRecord::Base&#45;&gt;LogEvent</title>
<path fill="none" stroke="black" d="M587.58,-938.928C562.025,-868.131 472.942,-591.99 558,-392 564.316,-377.149 573.908,-363.391 584.818,-351.068"/>
</g>
<!-- ActiveRecord::Base&#45;&gt;RuntimeStatistic -->
<g id="edge9" class="edge"><title>ActiveRecord::Base&#45;&gt;RuntimeStatistic</title>
<path fill="none" stroke="black" d="M662.153,-947.169C735.165,-936.144 843.961,-914.668 869,-882 993.626,-719.405 902.439,-452.41 854.955,-340.223"/>
</g>
<!-- ActiveRecord::Base&#45;&gt;Pool -->
<g id="edge11" class="edge"><title>ActiveRecord::Base&#45;&gt;Pool</title>
<path fill="none" stroke="black" d="M666.662,-948.945C750.976,-939.166 882.61,-918.441 915,-882 1052.15,-727.697 1015.35,-454.355 992.165,-340.281"/>
</g>
<!-- ActiveRecord::Base&#45;&gt;LogEventType -->
<g id="edge13" class="edge"><title>ActiveRecord::Base&#45;&gt;LogEventType</title>
<path fill="none" stroke="black" d="M594.668,-938.725C596.828,-885.292 604.29,-717.991 618,-580 620.173,-558.134 623.35,-533.944 626.221,-513.743"/>
</g>
<!-- ActiveRecord::Base&#45;&gt;User -->
<g id="edge15" class="edge"><title>ActiveRecord::Base&#45;&gt;User</title>
<path fill="none" stroke="black" d="M606.477,-939.164C618.692,-922.681 638.547,-895.889 659.984,-866.961"/>
</g>
<!-- ActiveRecord::Base&#45;&gt;LogFile -->
<g id="edge24" class="edge"><title>ActiveRecord::Base&#45;&gt;LogFile</title>
<path fill="none" stroke="black" d="M600.642,-938.929C606.142,-924.103 613.724,-901.941 618,-882 632.154,-815.99 615.475,-637.408 651,-580 666.57,-554.84 683.61,-562.121 707,-544 710.03,-541.653 713.081,-539.214 716.131,-536.713"/>
</g>
<!-- ActiveRecord::Base&#45;&gt;Gpu -->
<g id="edge25" class="edge"><title>ActiveRecord::Base&#45;&gt;Gpu</title>
<path fill="none" stroke="black" d="M670.535,-950.883C769.807,-942.676 935.448,-923.119 979,-882 1127.3,-741.988 1137.59,-478.465 1133.42,-355.008"/>
</g>
<!-- ActiveRecord::Base&#45;&gt;ConfigFile -->
<g id="edge26" class="edge"><title>ActiveRecord::Base&#45;&gt;ConfigFile</title>
<path fill="none" stroke="black" d="M673.436,-953.043C791.337,-947.101 1004.99,-929.879 1063,-882 1149.8,-810.357 1235.62,-471.762 1266.24,-340.33"/>
</g>
<!-- Object -->
<g id="node17" class="node"><title>Object</title>
<ellipse fill="none" stroke="black" cx="1244" cy="-957" rx="34.1708" ry="18"/>
<text text-anchor="middle" x="1244" y="-953.3" font-family="Times,serif" font-size="14.00">Object</text>
</g>
<!-- Object&#45;&gt;Ability -->
<g id="edge8" class="edge"><title>Object&#45;&gt;Ability</title>
<path fill="none" stroke="black" d="M1244,-938.795C1244,-898.636 1244,-798.751 1244,-754.136"/>
</g>
</g>
</svg>
