<?xml version="1.0" encoding="UTF-8" standalone="no"?>
<!DOCTYPE svg PUBLIC "-//W3C//DTD SVG 1.1//EN"
 "http://www.w3.org/Graphics/SVG/1.1/DTD/svg11.dtd">
<!-- Generated by graphviz version 2.36.0 (20140111.2315)
 -->
<!-- Title: models_diagram Pages: 1 -->
<svg width="1542pt" height="1004pt"
 viewBox="0.00 0.00 1542.00 1004.00" xmlns="http://www.w3.org/2000/svg" xmlns:xlink="http://www.w3.org/1999/xlink">
<g id="graph0" class="graph" transform="scale(1 1) rotate(0) translate(4 1000)">
<title>models_diagram</title>
<polygon fill="white" stroke="none" points="-4,4 -4,-1000 1538,-1000 1538,4 -4,4"/>
<!-- _diagram_info -->
<g id="node1" class="node"><title>_diagram_info</title>
<text text-anchor="start" x="537" y="-981.6" font-family="Times,serif" font-size="13.00">Models diagram</text>
<text text-anchor="start" x="537" y="-967.6" font-family="Times,serif" font-size="13.00">Date: Sep 14 2014 &#45; 20:14</text>
<text text-anchor="start" x="537" y="-953.6" font-family="Times,serif" font-size="13.00">Migration version: 20140913140623</text>
<text text-anchor="start" x="537" y="-939.6" font-family="Times,serif" font-size="13.00">Generated by RailRoady 1.1.2</text>
<text text-anchor="start" x="537" y="-925.6" font-family="Times,serif" font-size="13.00">http://railroady.prestonlee.com</text>
</g>
<!-- AccessType -->
<g id="node2" class="node"><title>AccessType</title>
<path fill="none" stroke="black" d="M298.5,-234C298.5,-234 405.5,-234 405.5,-234 411.5,-234 417.5,-240 417.5,-246 417.5,-246 417.5,-328 417.5,-328 417.5,-334 411.5,-340 405.5,-340 405.5,-340 298.5,-340 298.5,-340 292.5,-340 286.5,-334 286.5,-328 286.5,-328 286.5,-246 286.5,-246 286.5,-240 292.5,-234 298.5,-234"/>
<text text-anchor="middle" x="352" y="-324.8" font-family="Times,serif" font-size="14.00">AccessType</text>
<polyline fill="none" stroke="black" points="286.5,-317 417.5,-317 "/>
<text text-anchor="start" x="294.5" y="-301.8" font-family="Times,serif" font-size="14.00">id :integer</text>
<text text-anchor="start" x="294.5" y="-286.8" font-family="Times,serif" font-size="14.00">name :string</text>
<text text-anchor="start" x="294.5" y="-271.8" font-family="Times,serif" font-size="14.00">description :string</text>
<text text-anchor="start" x="294.5" y="-256.8" font-family="Times,serif" font-size="14.00">created_at :datetime</text>
<text text-anchor="start" x="294.5" y="-241.8" font-family="Times,serif" font-size="14.00">updated_at :datetime</text>
</g>
<!-- PoolStatistic -->
<g id="node3" class="node"><title>PoolStatistic</title>
<path fill="none" stroke="black" d="M252.5,-38C252.5,-38 359.5,-38 359.5,-38 365.5,-38 371.5,-44 371.5,-50 371.5,-50 371.5,-132 371.5,-132 371.5,-138 365.5,-144 359.5,-144 359.5,-144 252.5,-144 252.5,-144 246.5,-144 240.5,-138 240.5,-132 240.5,-132 240.5,-50 240.5,-50 240.5,-44 246.5,-38 252.5,-38"/>
<text text-anchor="middle" x="306" y="-128.8" font-family="Times,serif" font-size="14.00">PoolStatistic</text>
<polyline fill="none" stroke="black" points="240.5,-121 371.5,-121 "/>
<text text-anchor="start" x="248.5" y="-105.8" font-family="Times,serif" font-size="14.00">id :integer</text>
<text text-anchor="start" x="248.5" y="-90.8" font-family="Times,serif" font-size="14.00">stats :string</text>
<text text-anchor="start" x="248.5" y="-75.8" font-family="Times,serif" font-size="14.00">pool_id :integer</text>
<text text-anchor="start" x="248.5" y="-60.8" font-family="Times,serif" font-size="14.00">created_at :datetime</text>
<text text-anchor="start" x="248.5" y="-45.8" font-family="Times,serif" font-size="14.00">updated_at :datetime</text>
</g>
<!-- GraphicsProcessingUnitStat -->
<g id="node4" class="node"><title>GraphicsProcessingUnitStat</title>
<path fill="none" stroke="black" d="M11.5,-0.5C11.5,-0.5 204.5,-0.5 204.5,-0.5 210.5,-0.5 216.5,-6.5 216.5,-12.5 216.5,-12.5 216.5,-169.5 216.5,-169.5 216.5,-175.5 210.5,-181.5 204.5,-181.5 204.5,-181.5 11.5,-181.5 11.5,-181.5 5.5,-181.5 -0.5,-175.5 -0.5,-169.5 -0.5,-169.5 -0.5,-12.5 -0.5,-12.5 -0.5,-6.5 5.5,-0.5 11.5,-0.5"/>
<text text-anchor="middle" x="108" y="-166.3" font-family="Times,serif" font-size="14.00">GraphicsProcessingUnitStat</text>
<polyline fill="none" stroke="black" points="-0.5,-158.5 216.5,-158.5 "/>
<text text-anchor="start" x="7.5" y="-143.3" font-family="Times,serif" font-size="14.00">id :integer</text>
<text text-anchor="start" x="7.5" y="-128.3" font-family="Times,serif" font-size="14.00">average :string</text>
<text text-anchor="start" x="7.5" y="-113.3" font-family="Times,serif" font-size="14.00">accepted :integer</text>
<text text-anchor="start" x="7.5" y="-98.3" font-family="Times,serif" font-size="14.00">rejected :integer</text>
<text text-anchor="start" x="7.5" y="-83.3" font-family="Times,serif" font-size="14.00">hardware_errors :integer</text>
<text text-anchor="start" x="7.5" y="-68.3" font-family="Times,serif" font-size="14.00">work_utility :string</text>
<text text-anchor="start" x="7.5" y="-53.3" font-family="Times,serif" font-size="14.00">last_five_seconds :string</text>
<text text-anchor="start" x="7.5" y="-38.3" font-family="Times,serif" font-size="14.00">created_at :datetime</text>
<text text-anchor="start" x="7.5" y="-23.3" font-family="Times,serif" font-size="14.00">updated_at :datetime</text>
<text text-anchor="start" x="7.5" y="-8.3" font-family="Times,serif" font-size="14.00">graphics_processing_unit_id :integer</text>
</g>
<!-- SearchStatistic -->
<g id="node5" class="node"><title>SearchStatistic</title>
<path fill="none" stroke="black" d="M448,-219C448,-219 596,-219 596,-219 602,-219 608,-225 608,-231 608,-231 608,-343 608,-343 608,-349 602,-355 596,-355 596,-355 448,-355 448,-355 442,-355 436,-349 436,-343 436,-343 436,-231 436,-231 436,-225 442,-219 448,-219"/>
<text text-anchor="middle" x="522" y="-339.8" font-family="Times,serif" font-size="14.00">SearchStatistic</text>
<polyline fill="none" stroke="black" points="436,-332 608,-332 "/>
<text text-anchor="start" x="444" y="-316.8" font-family="Times,serif" font-size="14.00">id :integer</text>
<text text-anchor="start" x="444" y="-301.8" font-family="Times,serif" font-size="14.00">runtime_in_minutes :integer</text>
<text text-anchor="start" x="444" y="-286.8" font-family="Times,serif" font-size="14.00">start_date :date</text>
<text text-anchor="start" x="444" y="-271.8" font-family="Times,serif" font-size="14.00">average_hashrate :decimal</text>
<text text-anchor="start" x="444" y="-256.8" font-family="Times,serif" font-size="14.00">log_file_id :integer</text>
<text text-anchor="start" x="444" y="-241.8" font-family="Times,serif" font-size="14.00">created_at :datetime</text>
<text text-anchor="start" x="444" y="-226.8" font-family="Times,serif" font-size="14.00">updated_at :datetime</text>
</g>
<!-- GraphicsProcessingUnit -->
<g id="node6" class="node"><title>GraphicsProcessingUnit</title>
<path fill="none" stroke="black" d="M94,-234C94,-234 218,-234 218,-234 224,-234 230,-240 230,-246 230,-246 230,-328 230,-328 230,-334 224,-340 218,-340 218,-340 94,-340 94,-340 88,-340 82,-334 82,-328 82,-328 82,-246 82,-246 82,-240 88,-234 94,-234"/>
<text text-anchor="middle" x="156" y="-324.8" font-family="Times,serif" font-size="14.00">GraphicsProcessingUnit</text>
<polyline fill="none" stroke="black" points="82,-317 230,-317 "/>
<text text-anchor="start" x="90" y="-301.8" font-family="Times,serif" font-size="14.00">id :integer</text>
<text text-anchor="start" x="90" y="-286.8" font-family="Times,serif" font-size="14.00">name :string</text>
<text text-anchor="start" x="90" y="-271.8" font-family="Times,serif" font-size="14.00">log_file_id :integer</text>
<text text-anchor="start" x="90" y="-256.8" font-family="Times,serif" font-size="14.00">created_at :datetime</text>
<text text-anchor="start" x="90" y="-241.8" font-family="Times,serif" font-size="14.00">updated_at :datetime</text>
</g>
<!-- GraphicsProcessingUnit&#45;&gt;GraphicsProcessingUnitStat -->
<g id="edge5" class="edge"><title>GraphicsProcessingUnit&#45;&gt;GraphicsProcessingUnitStat</title>
<path fill="none" stroke="#7ca2b7" d="M141.08,-225.699C138.252,-214.268 135.226,-202.039 132.196,-189.794"/>
<ellipse fill="none" stroke="#7ca2b7" cx="142.113" cy="-229.873" rx="4.00001" ry="4.00001"/>
<ellipse fill="#7ca2b7" stroke="#7ca2b7" cx="131.167" cy="-185.635" rx="4.00001" ry="4.00001"/>
</g>
<!-- Platform -->
<g id="node7" class="node"><title>Platform</title>
<path fill="none" stroke="black" d="M638.5,-219C638.5,-219 745.5,-219 745.5,-219 751.5,-219 757.5,-225 757.5,-231 757.5,-231 757.5,-343 757.5,-343 757.5,-349 751.5,-355 745.5,-355 745.5,-355 638.5,-355 638.5,-355 632.5,-355 626.5,-349 626.5,-343 626.5,-343 626.5,-231 626.5,-231 626.5,-225 632.5,-219 638.5,-219"/>
<text text-anchor="middle" x="692" y="-339.8" font-family="Times,serif" font-size="14.00">Platform</text>
<polyline fill="none" stroke="black" points="626.5,-332 757.5,-332 "/>
<text text-anchor="start" x="634.5" y="-316.8" font-family="Times,serif" font-size="14.00">id :integer</text>
<text text-anchor="start" x="634.5" y="-301.8" font-family="Times,serif" font-size="14.00">vendor :string</text>
<text text-anchor="start" x="634.5" y="-286.8" font-family="Times,serif" font-size="14.00">name :string</text>
<text text-anchor="start" x="634.5" y="-271.8" font-family="Times,serif" font-size="14.00">version :string</text>
<text text-anchor="start" x="634.5" y="-256.8" font-family="Times,serif" font-size="14.00">log_file_id :integer</text>
<text text-anchor="start" x="634.5" y="-241.8" font-family="Times,serif" font-size="14.00">created_at :datetime</text>
<text text-anchor="start" x="634.5" y="-226.8" font-family="Times,serif" font-size="14.00">updated_at :datetime</text>
</g>
<!-- LogEvent -->
<g id="node8" class="node"><title>LogEvent</title>
<path fill="none" stroke="black" d="M1384,-219C1384,-219 1522,-219 1522,-219 1528,-219 1534,-225 1534,-231 1534,-231 1534,-343 1534,-343 1534,-349 1528,-355 1522,-355 1522,-355 1384,-355 1384,-355 1378,-355 1372,-349 1372,-343 1372,-343 1372,-231 1372,-231 1372,-225 1378,-219 1384,-219"/>
<text text-anchor="middle" x="1453" y="-339.8" font-family="Times,serif" font-size="14.00">LogEvent</text>
<polyline fill="none" stroke="black" points="1372,-332 1534,-332 "/>
<text text-anchor="start" x="1380" y="-316.8" font-family="Times,serif" font-size="14.00">id :integer</text>
<text text-anchor="start" x="1380" y="-301.8" font-family="Times,serif" font-size="14.00">row_number :integer</text>
<text text-anchor="start" x="1380" y="-286.8" font-family="Times,serif" font-size="14.00">event :string</text>
<text text-anchor="start" x="1380" y="-271.8" font-family="Times,serif" font-size="14.00">log_event_type_id :integer</text>
<text text-anchor="start" x="1380" y="-256.8" font-family="Times,serif" font-size="14.00">created_at :datetime</text>
<text text-anchor="start" x="1380" y="-241.8" font-family="Times,serif" font-size="14.00">updated_at :datetime</text>
<text text-anchor="start" x="1380" y="-226.8" font-family="Times,serif" font-size="14.00">log_file_id :integer</text>
</g>
<!-- Ability -->
<g id="node9" class="node"><title>Ability</title>
<polygon fill="none" stroke="black" points="1395.5,-708 1395.5,-754 1450.5,-754 1450.5,-708 1395.5,-708"/>
<text text-anchor="middle" x="1423" y="-738.8" font-family="Times,serif" font-size="14.00">Ability</text>
<polyline fill="none" stroke="black" points="1395.5,-731 1450.5,-731 "/>
<text text-anchor="middle" x="1423" y="-715.8" font-family="Times,serif" font-size="14.00"> </text>
</g>
<!-- RuntimeStatistic -->
<g id="node10" class="node"><title>RuntimeStatistic</title>
<path fill="none" stroke="black" d="M787.5,-234C787.5,-234 894.5,-234 894.5,-234 900.5,-234 906.5,-240 906.5,-246 906.5,-246 906.5,-328 906.5,-328 906.5,-334 900.5,-340 894.5,-340 894.5,-340 787.5,-340 787.5,-340 781.5,-340 775.5,-334 775.5,-328 775.5,-328 775.5,-246 775.5,-246 775.5,-240 781.5,-234 787.5,-234"/>
<text text-anchor="middle" x="841" y="-324.8" font-family="Times,serif" font-size="14.00">RuntimeStatistic</text>
<polyline fill="none" stroke="black" points="775.5,-317 906.5,-317 "/>
<text text-anchor="start" x="783.5" y="-301.8" font-family="Times,serif" font-size="14.00">id :integer</text>
<text text-anchor="start" x="783.5" y="-286.8" font-family="Times,serif" font-size="14.00">stats :string</text>
<text text-anchor="start" x="783.5" y="-271.8" font-family="Times,serif" font-size="14.00">log_file_id :integer</text>
<text text-anchor="start" x="783.5" y="-256.8" font-family="Times,serif" font-size="14.00">created_at :datetime</text>
<text text-anchor="start" x="783.5" y="-241.8" font-family="Times,serif" font-size="14.00">updated_at :datetime</text>
</g>
<!-- Pool -->
<g id="node11" class="node"><title>Pool</title>
<path fill="none" stroke="black" d="M1234.5,-234C1234.5,-234 1341.5,-234 1341.5,-234 1347.5,-234 1353.5,-240 1353.5,-246 1353.5,-246 1353.5,-328 1353.5,-328 1353.5,-334 1347.5,-340 1341.5,-340 1341.5,-340 1234.5,-340 1234.5,-340 1228.5,-340 1222.5,-334 1222.5,-328 1222.5,-328 1222.5,-246 1222.5,-246 1222.5,-240 1228.5,-234 1234.5,-234"/>
<text text-anchor="middle" x="1288" y="-324.8" font-family="Times,serif" font-size="14.00">Pool</text>
<polyline fill="none" stroke="black" points="1222.5,-317 1353.5,-317 "/>
<text text-anchor="start" x="1230.5" y="-301.8" font-family="Times,serif" font-size="14.00">id :integer</text>
<text text-anchor="start" x="1230.5" y="-286.8" font-family="Times,serif" font-size="14.00">name :string</text>
<text text-anchor="start" x="1230.5" y="-271.8" font-family="Times,serif" font-size="14.00">log_file_id :integer</text>
<text text-anchor="start" x="1230.5" y="-256.8" font-family="Times,serif" font-size="14.00">created_at :datetime</text>
<text text-anchor="start" x="1230.5" y="-241.8" font-family="Times,serif" font-size="14.00">updated_at :datetime</text>
</g>
<!-- Pool&#45;&gt;PoolStatistic -->
<g id="edge11" class="edge"><title>Pool&#45;&gt;PoolStatistic</title>
<path fill="none" stroke="#a9710d" d="M1232.02,-229.17C1225.93,-224.893 1219.55,-221.061 1213,-218 1065.31,-148.962 572.081,-109.67 381.79,-96.7746"/>
<ellipse fill="none" stroke="#a9710d" cx="1235.31" cy="-231.593" rx="4.00002" ry="4.00002"/>
<polygon fill="#a9710d" stroke="#a9710d" points="381.576,-96.7603 371.9,-91.5998 376.587,-96.425 371.598,-96.0896 371.598,-96.0896 371.598,-96.0896 376.587,-96.425 371.297,-100.58 381.576,-96.7603 381.576,-96.7603"/>
</g>
<!-- LogEventType -->
<g id="node12" class="node"><title>LogEventType</title>
<path fill="none" stroke="black" d="M1370.5,-422.5C1370.5,-422.5 1477.5,-422.5 1477.5,-422.5 1483.5,-422.5 1489.5,-428.5 1489.5,-434.5 1489.5,-434.5 1489.5,-501.5 1489.5,-501.5 1489.5,-507.5 1483.5,-513.5 1477.5,-513.5 1477.5,-513.5 1370.5,-513.5 1370.5,-513.5 1364.5,-513.5 1358.5,-507.5 1358.5,-501.5 1358.5,-501.5 1358.5,-434.5 1358.5,-434.5 1358.5,-428.5 1364.5,-422.5 1370.5,-422.5"/>
<text text-anchor="middle" x="1424" y="-498.3" font-family="Times,serif" font-size="14.00">LogEventType</text>
<polyline fill="none" stroke="black" points="1358.5,-490.5 1489.5,-490.5 "/>
<text text-anchor="start" x="1366.5" y="-475.3" font-family="Times,serif" font-size="14.00">id :integer</text>
<text text-anchor="start" x="1366.5" y="-460.3" font-family="Times,serif" font-size="14.00">event_type :string</text>
<text text-anchor="start" x="1366.5" y="-445.3" font-family="Times,serif" font-size="14.00">created_at :datetime</text>
<text text-anchor="start" x="1366.5" y="-430.3" font-family="Times,serif" font-size="14.00">updated_at :datetime</text>
</g>
<!-- LogEventType&#45;&gt;LogEvent -->
<g id="edge13" class="edge"><title>LogEventType&#45;&gt;LogEvent</title>
<path fill="none" stroke="#9b842d" d="M1432.59,-414.001C1435.06,-398.714 1437.82,-381.711 1440.48,-365.27"/>
<ellipse fill="none" stroke="#9b842d" cx="1431.88" cy="-418.344" rx="4.00001" ry="4.00001"/>
<polygon fill="#9b842d" stroke="#9b842d" points="1440.53,-364.998 1446.57,-355.846 1441.33,-360.062 1442.12,-355.126 1442.12,-355.126 1442.12,-355.126 1441.33,-360.062 1437.68,-354.407 1440.53,-364.998 1440.53,-364.998"/>
</g>
<!-- User -->
<g id="node13" class="node"><title>User</title>
<path fill="none" stroke="black" d="M690,-580.5C690,-580.5 866,-580.5 866,-580.5 872,-580.5 878,-586.5 878,-592.5 878,-592.5 878,-869.5 878,-869.5 878,-875.5 872,-881.5 866,-881.5 866,-881.5 690,-881.5 690,-881.5 684,-881.5 678,-875.5 678,-869.5 678,-869.5 678,-592.5 678,-592.5 678,-586.5 684,-580.5 690,-580.5"/>
<text text-anchor="middle" x="778" y="-866.3" font-family="Times,serif" font-size="14.00">User</text>
<polyline fill="none" stroke="black" points="678,-858.5 878,-858.5 "/>
<text text-anchor="start" x="686" y="-843.3" font-family="Times,serif" font-size="14.00">id :integer</text>
<text text-anchor="start" x="686" y="-828.3" font-family="Times,serif" font-size="14.00">email :string</text>
<text text-anchor="start" x="686" y="-813.3" font-family="Times,serif" font-size="14.00">encrypted_password :string</text>
<text text-anchor="start" x="686" y="-798.3" font-family="Times,serif" font-size="14.00">reset_password_token :string</text>
<text text-anchor="start" x="686" y="-783.3" font-family="Times,serif" font-size="14.00">reset_password_sent_at :datetime</text>
<text text-anchor="start" x="686" y="-768.3" font-family="Times,serif" font-size="14.00">remember_created_at :datetime</text>
<text text-anchor="start" x="686" y="-753.3" font-family="Times,serif" font-size="14.00">sign_in_count :integer</text>
<text text-anchor="start" x="686" y="-738.3" font-family="Times,serif" font-size="14.00">current_sign_in_at :datetime</text>
<text text-anchor="start" x="686" y="-723.3" font-family="Times,serif" font-size="14.00">last_sign_in_at :datetime</text>
<text text-anchor="start" x="686" y="-708.3" font-family="Times,serif" font-size="14.00">current_sign_in_ip :string</text>
<text text-anchor="start" x="686" y="-693.3" font-family="Times,serif" font-size="14.00">last_sign_in_ip :string</text>
<text text-anchor="start" x="686" y="-678.3" font-family="Times,serif" font-size="14.00">created_at :datetime</text>
<text text-anchor="start" x="686" y="-663.3" font-family="Times,serif" font-size="14.00">updated_at :datetime</text>
<text text-anchor="start" x="686" y="-648.3" font-family="Times,serif" font-size="14.00">username :string</text>
<text text-anchor="start" x="686" y="-633.3" font-family="Times,serif" font-size="14.00">avatar_url :string</text>
<text text-anchor="start" x="686" y="-618.3" font-family="Times,serif" font-size="14.00">is_admin :boolean</text>
<text text-anchor="start" x="686" y="-603.3" font-family="Times,serif" font-size="14.00">provider :string</text>
<text text-anchor="start" x="686" y="-588.3" font-family="Times,serif" font-size="14.00">uid :string</text>
</g>
<!-- LogFile -->
<g id="node14" class="node"><title>LogFile</title>
<path fill="none" stroke="black" d="M781.5,-392.5C781.5,-392.5 900.5,-392.5 900.5,-392.5 906.5,-392.5 912.5,-398.5 912.5,-404.5 912.5,-404.5 912.5,-531.5 912.5,-531.5 912.5,-537.5 906.5,-543.5 900.5,-543.5 900.5,-543.5 781.5,-543.5 781.5,-543.5 775.5,-543.5 769.5,-537.5 769.5,-531.5 769.5,-531.5 769.5,-404.5 769.5,-404.5 769.5,-398.5 775.5,-392.5 781.5,-392.5"/>
<text text-anchor="middle" x="841" y="-528.3" font-family="Times,serif" font-size="14.00">LogFile</text>
<polyline fill="none" stroke="black" points="769.5,-520.5 912.5,-520.5 "/>
<text text-anchor="start" x="777.5" y="-505.3" font-family="Times,serif" font-size="14.00">id :integer</text>
<text text-anchor="start" x="777.5" y="-490.3" font-family="Times,serif" font-size="14.00">name :string</text>
<text text-anchor="start" x="777.5" y="-475.3" font-family="Times,serif" font-size="14.00">description :string</text>
<text text-anchor="start" x="777.5" y="-460.3" font-family="Times,serif" font-size="14.00">created_at :datetime</text>
<text text-anchor="start" x="777.5" y="-445.3" font-family="Times,serif" font-size="14.00">updated_at :datetime</text>
<text text-anchor="start" x="777.5" y="-430.3" font-family="Times,serif" font-size="14.00">log_file :string</text>
<text text-anchor="start" x="777.5" y="-415.3" font-family="Times,serif" font-size="14.00">access_type_id :integer</text>
<text text-anchor="start" x="777.5" y="-400.3" font-family="Times,serif" font-size="14.00">user_id :integer</text>
</g>
<!-- User&#45;&gt;LogFile -->
<g id="edge15" class="edge"><title>User&#45;&gt;LogFile</title>
<path fill="none" stroke="#66a563" d="M816.022,-572.481C817.549,-566.153 819.055,-559.914 820.525,-553.827"/>
<ellipse fill="none" stroke="#66a563" cx="815.038" cy="-576.556" rx="4.00001" ry="4.00001"/>
<polygon fill="#66a563" stroke="#66a563" points="820.614,-553.457 827.335,-544.792 821.787,-548.597 822.96,-543.736 822.96,-543.736 822.96,-543.736 821.787,-548.597 818.586,-542.68 820.614,-553.457 820.614,-553.457"/>
</g>
<!-- LogFile&#45;&gt;AccessType -->
<g id="edge17" class="edge"><title>LogFile&#45;&gt;AccessType</title>
<path fill="none" stroke="#fc84d9" d="M761.505,-457.082C674.958,-443.764 534.543,-414.642 427,-356 421.122,-352.795 415.332,-349.038 409.735,-344.964"/>
<ellipse fill="none" stroke="#fc84d9" cx="765.495" cy="-457.686" rx="4.00001" ry="4.00001"/>
<ellipse fill="#fc84d9" stroke="#fc84d9" cx="406.446" cy="-342.468" rx="4.00002" ry="4.00002"/>
</g>
<!-- LogFile&#45;&gt;SearchStatistic -->
<g id="edge25" class="edge"><title>LogFile&#45;&gt;SearchStatistic</title>
<path fill="none" stroke="#12cd05" d="M761.869,-431.61C718.232,-411.153 663.609,-383.98 617,-356 616.353,-355.612 615.705,-355.22 615.056,-354.826"/>
<ellipse fill="none" stroke="#12cd05" cx="765.704" cy="-433.399" rx="4.00002" ry="4.00002"/>
<ellipse fill="#12cd05" stroke="#12cd05" cx="611.47" cy="-352.605" rx="4.00002" ry="4.00002"/>
</g>
<!-- LogFile&#45;&gt;GraphicsProcessingUnit -->
<g id="edge23" class="edge"><title>LogFile&#45;&gt;GraphicsProcessingUnit</title>
<path fill="none" stroke="#8ac13a" d="M760.959,-459.332C649.635,-446.873 443.029,-417.201 277,-356 263.741,-351.113 250.208,-344.896 237.222,-338.216"/>
<ellipse fill="none" stroke="#8ac13a" cx="765.159" cy="-459.796" rx="4.00001" ry="4.00001"/>
<ellipse fill="#8ac13a" stroke="#8ac13a" cx="233.61" cy="-336.322" rx="4.00002" ry="4.00002"/>
</g>
<!-- LogFile&#45;&gt;Platform -->
<g id="edge19" class="edge"><title>LogFile&#45;&gt;Platform</title>
<path fill="none" stroke="#e24058" d="M773.553,-385.974C766.698,-377.738 759.762,-369.406 752.981,-361.259"/>
<ellipse fill="none" stroke="#e24058" cx="776.33" cy="-389.31" rx="4.00002" ry="4.00002"/>
<ellipse fill="#e24058" stroke="#e24058" cx="750.388" cy="-358.145" rx="4.00002" ry="4.00002"/>
</g>
<!-- LogFile&#45;&gt;LogEvent -->
<g id="edge24" class="edge"><title>LogFile&#45;&gt;LogEvent</title>
<path fill="none" stroke="#7ecb0f" d="M920.746,-460.718C1025.92,-450.082 1214.86,-422.738 1362,-356 1362.31,-355.859 1362.62,-355.716 1362.93,-355.573"/>
<ellipse fill="none" stroke="#7ecb0f" cx="916.68" cy="-461.121" rx="4" ry="4"/>
<polygon fill="#7ecb0f" stroke="#7ecb0f" points="1362.98,-355.548 1373.94,-355.123 1367.46,-353.321 1371.94,-351.094 1371.94,-351.094 1371.94,-351.094 1367.46,-353.321 1369.93,-347.065 1362.98,-355.548 1362.98,-355.548"/>
</g>
<!-- LogFile&#45;&gt;RuntimeStatistic -->
<g id="edge21" class="edge"><title>LogFile&#45;&gt;RuntimeStatistic</title>
<path fill="none" stroke="#d326db" d="M841,-384.108C841,-372.77 841,-361.29 841,-350.401"/>
<ellipse fill="none" stroke="#d326db" cx="841" cy="-388.384" rx="4" ry="4"/>
<polygon fill="#d326db" stroke="#d326db" points="841,-350.166 845.5,-340.166 841,-345.166 841,-340.166 841,-340.166 841,-340.166 841,-345.166 836.5,-340.166 841,-350.166 841,-350.166"/>
</g>
<!-- LogFile&#45;&gt;Pool -->
<g id="edge22" class="edge"><title>LogFile&#45;&gt;Pool</title>
<path fill="none" stroke="#21736d" d="M920.486,-453.941C998.695,-438.706 1119.62,-408.628 1213,-356 1218.1,-353.125 1223.14,-349.847 1228.06,-346.32"/>
<ellipse fill="none" stroke="#21736d" cx="916.51" cy="-454.704" rx="4.00001" ry="4.00001"/>
<polygon fill="#21736d" stroke="#21736d" points="1228.21,-346.201 1238.91,-343.765 1232.2,-343.188 1236.19,-340.174 1236.19,-340.174 1236.19,-340.174 1232.2,-343.188 1233.48,-336.583 1228.21,-346.201 1228.21,-346.201"/>
</g>
<!-- Gpu -->
<g id="node15" class="node"><title>Gpu</title>
<path fill="none" stroke="black" d="M936.5,-219C936.5,-219 1043.5,-219 1043.5,-219 1049.5,-219 1055.5,-225 1055.5,-231 1055.5,-231 1055.5,-343 1055.5,-343 1055.5,-349 1049.5,-355 1043.5,-355 1043.5,-355 936.5,-355 936.5,-355 930.5,-355 924.5,-349 924.5,-343 924.5,-343 924.5,-231 924.5,-231 924.5,-225 930.5,-219 936.5,-219"/>
<text text-anchor="middle" x="990" y="-339.8" font-family="Times,serif" font-size="14.00">Gpu</text>
<polyline fill="none" stroke="black" points="924.5,-332 1055.5,-332 "/>
<text text-anchor="start" x="932.5" y="-316.8" font-family="Times,serif" font-size="14.00">id :integer</text>
<text text-anchor="start" x="932.5" y="-301.8" font-family="Times,serif" font-size="14.00">UDID :string</text>
<text text-anchor="start" x="932.5" y="-286.8" font-family="Times,serif" font-size="14.00">name :string</text>
<text text-anchor="start" x="932.5" y="-271.8" font-family="Times,serif" font-size="14.00">vendorID :string</text>
<text text-anchor="start" x="932.5" y="-256.8" font-family="Times,serif" font-size="14.00">log_file_id :integer</text>
<text text-anchor="start" x="932.5" y="-241.8" font-family="Times,serif" font-size="14.00">created_at :datetime</text>
<text text-anchor="start" x="932.5" y="-226.8" font-family="Times,serif" font-size="14.00">updated_at :datetime</text>
</g>
<!-- LogFile&#45;&gt;Gpu -->
<g id="edge20" class="edge"><title>LogFile&#45;&gt;Gpu</title>
<path fill="none" stroke="#25eed2" d="M908.447,-385.974C914.764,-378.384 921.15,-370.712 927.421,-363.179"/>
<ellipse fill="none" stroke="#25eed2" cx="905.67" cy="-389.31" rx="4.00002" ry="4.00002"/>
<polygon fill="#25eed2" stroke="#25eed2" points="927.773,-362.756 937.629,-357.949 930.972,-358.913 934.171,-355.07 934.171,-355.07 934.171,-355.07 930.972,-358.913 930.712,-352.191 927.773,-362.756 927.773,-362.756"/>
</g>
<!-- ConfigFile -->
<g id="node16" class="node"><title>ConfigFile</title>
<path fill="none" stroke="black" d="M1085.5,-234C1085.5,-234 1192.5,-234 1192.5,-234 1198.5,-234 1204.5,-240 1204.5,-246 1204.5,-246 1204.5,-328 1204.5,-328 1204.5,-334 1198.5,-340 1192.5,-340 1192.5,-340 1085.5,-340 1085.5,-340 1079.5,-340 1073.5,-334 1073.5,-328 1073.5,-328 1073.5,-246 1073.5,-246 1073.5,-240 1079.5,-234 1085.5,-234"/>
<text text-anchor="middle" x="1139" y="-324.8" font-family="Times,serif" font-size="14.00">ConfigFile</text>
<polyline fill="none" stroke="black" points="1073.5,-317 1204.5,-317 "/>
<text text-anchor="start" x="1081.5" y="-301.8" font-family="Times,serif" font-size="14.00">id :integer</text>
<text text-anchor="start" x="1081.5" y="-286.8" font-family="Times,serif" font-size="14.00">json :text</text>
<text text-anchor="start" x="1081.5" y="-271.8" font-family="Times,serif" font-size="14.00">created_at :datetime</text>
<text text-anchor="start" x="1081.5" y="-256.8" font-family="Times,serif" font-size="14.00">updated_at :datetime</text>
<text text-anchor="start" x="1081.5" y="-241.8" font-family="Times,serif" font-size="14.00">log_file_id :integer</text>
</g>
<!-- LogFile&#45;&gt;ConfigFile -->
<g id="edge18" class="edge"><title>LogFile&#45;&gt;ConfigFile</title>
<path fill="none" stroke="#9d10bd" d="M920.093,-434.067C964.104,-414.186 1018.93,-386.779 1064,-356 1068.79,-352.729 1073.59,-349.171 1078.32,-345.455"/>
<ellipse fill="none" stroke="#9d10bd" cx="916.217" cy="-435.805" rx="4.00002" ry="4.00002"/>
<ellipse fill="#9d10bd" stroke="#9d10bd" cx="1081.6" cy="-342.811" rx="4.00002" ry="4.00002"/>
</g>
<!-- ActiveRecord::Base -->
<g id="node17" class="node"><title>ActiveRecord::Base</title>
<ellipse fill="none" stroke="black" cx="842" cy="-957" rx="81.3646" ry="18"/>
<text text-anchor="middle" x="842" y="-953.3" font-family="Times,serif" font-size="14.00">ActiveRecord::Base</text>
</g>
<!-- ActiveRecord::Base&#45;&gt;AccessType -->
<g id="edge1" class="edge"><title>ActiveRecord::Base&#45;&gt;AccessType</title>
<path fill="none" stroke="black" d="M810.279,-940.401C793.108,-932.565 771.307,-923.575 751,-918 695.813,-902.851 538.392,-920.445 496,-882 338.794,-739.433 339.332,-457.078 347.09,-340.37"/>
</g>
<!-- ActiveRecord::Base&#45;&gt;PoolStatistic -->
<g id="edge2" class="edge"><title>ActiveRecord::Base&#45;&gt;PoolStatistic</title>
<path fill="none" stroke="black" d="M810.804,-940.182C793.601,-932.181 771.607,-923.106 751,-918 664.801,-896.642 417.446,-943.1 353,-882 145.61,-685.377 244.201,-286.743 288.464,-144.168"/>
</g>
<!-- ActiveRecord::Base&#45;&gt;GraphicsProcessingUnitStat -->
<g id="edge3" class="edge"><title>ActiveRecord::Base&#45;&gt;GraphicsProcessingUnitStat</title>
<path fill="none" stroke="black" d="M811.696,-940.302C794.394,-932.125 772.021,-922.844 751,-918 683,-902.332 174.303,-930.364 124,-882 -65.7431,-699.572 19.9549,-346.811 74.7929,-181.533"/>
</g>
<!-- ActiveRecord::Base&#45;&gt;SearchStatistic -->
<g id="edge4" class="edge"><title>ActiveRecord::Base&#45;&gt;SearchStatistic</title>
<path fill="none" stroke="black" d="M808.328,-940.497C791.366,-933.059 770.343,-924.398 751,-918 687.959,-897.146 650.476,-931.304 606,-882 472.929,-734.484 491.528,-477.013 509.654,-355.346"/>
</g>
<!-- ActiveRecord::Base&#45;&gt;GraphicsProcessingUnit -->
<g id="edge6" class="edge"><title>ActiveRecord::Base&#45;&gt;GraphicsProcessingUnit</title>
<path fill="none" stroke="black" d="M811.257,-940.218C794.006,-932.122 771.821,-922.946 751,-918 696.054,-904.947 285.426,-920.384 244,-882 90.8681,-740.112 123.459,-456.746 144.916,-340.055"/>
</g>
<!-- ActiveRecord::Base&#45;&gt;Platform -->
<g id="edge7" class="edge"><title>ActiveRecord::Base&#45;&gt;Platform</title>
<path fill="none" stroke="black" d="M805.579,-940.712C755.129,-919.495 670.012,-883.534 669,-882 561.569,-719.2 625.303,-473.019 666.022,-355.31"/>
</g>
<!-- ActiveRecord::Base&#45;&gt;LogEvent -->
<g id="edge8" class="edge"><title>ActiveRecord::Base&#45;&gt;LogEvent</title>
<path fill="none" stroke="black" d="M912.278,-947.861C996.096,-936.841 1129.59,-914.716 1167,-882 1341.98,-728.954 1224.75,-587.842 1350,-392 1358.15,-379.262 1368.07,-366.827 1378.5,-355.243"/>
</g>
<!-- ActiveRecord::Base&#45;&gt;RuntimeStatistic -->
<g id="edge10" class="edge"><title>ActiveRecord::Base&#45;&gt;RuntimeStatistic</title>
<path fill="none" stroke="black" d="M865.224,-939.494C881.919,-926.127 903.153,-905.672 913,-882 954.825,-781.449 956.068,-495.103 921,-392 914.692,-373.453 903.594,-355.631 891.636,-340.139"/>
</g>
<!-- ActiveRecord::Base&#45;&gt;Pool -->
<g id="edge12" class="edge"><title>ActiveRecord::Base&#45;&gt;Pool</title>
<path fill="none" stroke="black" d="M915.027,-949.091C964.79,-940.771 1029.02,-922.429 1071,-882 1228.57,-730.258 1272.32,-454.889 1283.97,-340.258"/>
</g>
<!-- ActiveRecord::Base&#45;&gt;LogEventType -->
<g id="edge14" class="edge"><title>ActiveRecord::Base&#45;&gt;LogEventType</title>
<path fill="none" stroke="black" d="M922.315,-953.952C1042.04,-949.208 1259.22,-933.545 1315,-882 1416.34,-788.352 1349.15,-712.69 1387,-580 1393.3,-557.927 1401.24,-533.713 1408.16,-513.549"/>
</g>
<!-- ActiveRecord::Base&#45;&gt;User -->
<g id="edge16" class="edge"><title>ActiveRecord::Base&#45;&gt;User</title>
<path fill="none" stroke="black" d="M837.084,-938.795C833.177,-925.118 827.29,-904.515 820.722,-881.526"/>
</g>
<!-- ActiveRecord::Base&#45;&gt;LogFile -->
<g id="edge26" class="edge"><title>ActiveRecord::Base&#45;&gt;LogFile</title>
<path fill="none" stroke="black" d="M856.064,-939.043C866.894,-924.813 880.996,-903.428 887,-882 923.212,-752.755 913.197,-711.641 887,-580 884.598,-567.929 880.86,-555.526 876.529,-543.586"/>
</g>
<!-- ActiveRecord::Base&#45;&gt;Gpu -->
<g id="edge27" class="edge"><title>ActiveRecord::Base&#45;&gt;Gpu</title>
<path fill="none" stroke="black" d="M876.635,-940.651C899.939,-928.353 929.042,-908.728 944,-882 1039.09,-712.086 1019.21,-470.864 1002.02,-355.087"/>
</g>
<!-- ActiveRecord::Base&#45;&gt;ConfigFile -->
<g id="edge28" class="edge"><title>ActiveRecord::Base&#45;&gt;ConfigFile</title>
<path fill="none" stroke="black" d="M894.002,-943.067C927.309,-932.155 968.853,-913.188 994,-882 1126.1,-718.173 1140.56,-451.854 1140.36,-340.035"/>
</g>
<!-- Object -->
<g id="node18" class="node"><title>Object</title>
<ellipse fill="none" stroke="black" cx="1423" cy="-957" rx="34.1708" ry="18"/>
<text text-anchor="middle" x="1423" y="-953.3" font-family="Times,serif" font-size="14.00">Object</text>
</g>
<!-- Object&#45;&gt;Ability -->
<g id="edge9" class="edge"><title>Object&#45;&gt;Ability</title>
<path fill="none" stroke="black" d="M1423,-938.795C1423,-898.636 1423,-798.751 1423,-754.136"/>
</g>
</g>
</svg>
