<?xml version="1.0" encoding="UTF-8" standalone="no"?>
<!DOCTYPE svg PUBLIC "-//W3C//DTD SVG 1.1//EN"
 "http://www.w3.org/Graphics/SVG/1.1/DTD/svg11.dtd">
<!-- Generated by graphviz version 2.36.0 (20140111.2315)
 -->
<!-- Title: models_diagram Pages: 1 -->
<svg width="1207pt" height="374pt"
 viewBox="0.00 0.00 1207.00 374.00" xmlns="http://www.w3.org/2000/svg" xmlns:xlink="http://www.w3.org/1999/xlink">
<g id="graph0" class="graph" transform="scale(1 1) rotate(0) translate(4 370)">
<title>models_diagram</title>
<polygon fill="white" stroke="none" points="-4,4 -4,-370 1203,-370 1203,4 -4,4"/>
<!-- _diagram_info -->
<g id="node1" class="node"><title>_diagram_info</title>
<text text-anchor="start" x="397" y="-351.6" font-family="Times,serif" font-size="13.00">Models diagram</text>
<text text-anchor="start" x="397" y="-337.6" font-family="Times,serif" font-size="13.00">Date: Sep 14 2014 &#45; 20:14</text>
<text text-anchor="start" x="397" y="-323.6" font-family="Times,serif" font-size="13.00">Migration version: 20140913140623</text>
<text text-anchor="start" x="397" y="-309.6" font-family="Times,serif" font-size="13.00">Generated by RailRoady 1.1.2</text>
<text text-anchor="start" x="397" y="-295.6" font-family="Times,serif" font-size="13.00">http://railroady.prestonlee.com</text>
</g>
<!-- AccessType -->
<g id="node2" class="node"><title>AccessType</title>
<ellipse fill="none" stroke="black" cx="361" cy="-90" rx="53.4184" ry="18"/>
<text text-anchor="middle" x="361" y="-86.3" font-family="Times,serif" font-size="14.00">AccessType</text>
</g>
<!-- PoolStatistic -->
<g id="node3" class="node"><title>PoolStatistic</title>
<ellipse fill="none" stroke="black" cx="324" cy="-18" rx="55.3682" ry="18"/>
<text text-anchor="middle" x="324" y="-14.3" font-family="Times,serif" font-size="14.00">PoolStatistic</text>
</g>
<!-- GraphicsProcessingUnitStat -->
<g id="node4" class="node"><title>GraphicsProcessingUnitStat</title>
<ellipse fill="none" stroke="black" cx="109" cy="-18" rx="109.261" ry="18"/>
<text text-anchor="middle" x="109" y="-14.3" font-family="Times,serif" font-size="14.00">GraphicsProcessingUnitStat</text>
</g>
<!-- SearchStatistic -->
<g id="node5" class="node"><title>SearchStatistic</title>
<ellipse fill="none" stroke="black" cx="496" cy="-90" rx="63.0666" ry="18"/>
<text text-anchor="middle" x="496" y="-86.3" font-family="Times,serif" font-size="14.00">SearchStatistic</text>
</g>
<!-- GraphicsProcessingUnit -->
<g id="node6" class="node"><title>GraphicsProcessingUnit</title>
<ellipse fill="none" stroke="black" cx="155" cy="-90" rx="96.2874" ry="18"/>
<text text-anchor="middle" x="155" y="-86.3" font-family="Times,serif" font-size="14.00">GraphicsProcessingUnit</text>
</g>
<!-- GraphicsProcessingUnit&#45;&gt;GraphicsProcessingUnitStat -->
<g id="edge5" class="edge"><title>GraphicsProcessingUnit&#45;&gt;GraphicsProcessingUnitStat</title>
<path fill="none" stroke="#4d93af" d="M139.298,-65.1057C134.633,-58.0071 129.522,-50.2286 124.848,-43.116"/>
<ellipse fill="none" stroke="#4d93af" cx="141.668" cy="-68.7121" rx="4.00002" ry="4.00002"/>
<ellipse fill="#4d93af" stroke="#4d93af" cx="122.549" cy="-39.6181" rx="4.00002" ry="4.00002"/>
</g>
<!-- Platform -->
<g id="node7" class="node"><title>Platform</title>
<ellipse fill="none" stroke="black" cx="619" cy="-90" rx="42.3701" ry="18"/>
<text text-anchor="middle" x="619" y="-86.3" font-family="Times,serif" font-size="14.00">Platform</text>
</g>
<!-- LogEvent -->
<g id="node8" class="node"><title>LogEvent</title>
<ellipse fill="none" stroke="black" cx="1142" cy="-90" rx="45.244" ry="18"/>
<text text-anchor="middle" x="1142" y="-86.3" font-family="Times,serif" font-size="14.00">LogEvent</text>
</g>
<!-- Ability -->
<g id="node9" class="node"><title>Ability</title>
<polygon fill="none" stroke="black" points="1186.25,-252 1131.75,-252 1131.75,-216 1186.25,-216 1186.25,-252"/>
<text text-anchor="middle" x="1159" y="-230.3" font-family="Times,serif" font-size="14.00">Ability</text>
</g>
<!-- RuntimeStatistic -->
<g id="node10" class="node"><title>RuntimeStatistic</title>
<ellipse fill="none" stroke="black" cx="749" cy="-90" rx="69.3156" ry="18"/>
<text text-anchor="middle" x="749" y="-86.3" font-family="Times,serif" font-size="14.00">RuntimeStatistic</text>
</g>
<!-- Pool -->
<g id="node11" class="node"><title>Pool</title>
<ellipse fill="none" stroke="black" cx="1052" cy="-90" rx="27" ry="18"/>
<text text-anchor="middle" x="1052" y="-86.3" font-family="Times,serif" font-size="14.00">Pool</text>
</g>
<!-- Pool&#45;&gt;PoolStatistic -->
<g id="edge11" class="edge"><title>Pool&#45;&gt;PoolStatistic</title>
<path fill="none" stroke="#a37582" d="M1023.79,-74.823C1020.87,-73.7259 1017.91,-72.7538 1015,-72 897.707,-41.5972 537.236,-26.2268 388.85,-21.0545"/>
<ellipse fill="none" stroke="#a37582" cx="1027.65" cy="-76.4231" rx="4.00002" ry="4.00002"/>
<polygon fill="#a37582" stroke="#a37582" points="388.533,-21.0436 378.693,-16.2023 383.536,-20.8716 378.539,-20.6996 378.539,-20.6996 378.539,-20.6996 383.536,-20.8716 378.384,-25.1969 388.533,-21.0436 388.533,-21.0436"/>
</g>
<!-- LogEventType -->
<g id="node12" class="node"><title>LogEventType</title>
<ellipse fill="none" stroke="black" cx="1136" cy="-162" rx="63.5411" ry="18"/>
<text text-anchor="middle" x="1136" y="-158.3" font-family="Times,serif" font-size="14.00">LogEventType</text>
</g>
<!-- LogEventType&#45;&gt;LogEvent -->
<g id="edge13" class="edge"><title>LogEventType&#45;&gt;LogEvent</title>
<path fill="none" stroke="#c224f3" d="M1138.17,-135.64C1138.65,-130.063 1139.16,-124.132 1139.64,-118.476"/>
<ellipse fill="none" stroke="#c224f3" cx="1137.82" cy="-139.711" rx="4" ry="4"/>
<polygon fill="#c224f3" stroke="#c224f3" points="1139.68,-118.068 1145.02,-108.489 1140.11,-113.086 1140.53,-108.104 1140.53,-108.104 1140.53,-108.104 1140.11,-113.086 1136.05,-107.72 1139.68,-118.068 1139.68,-118.068"/>
</g>
<!-- User -->
<g id="node13" class="node"><title>User</title>
<ellipse fill="none" stroke="black" cx="674" cy="-234" rx="26.949" ry="18"/>
<text text-anchor="middle" x="674" y="-230.3" font-family="Times,serif" font-size="14.00">User</text>
</g>
<!-- LogFile -->
<g id="node14" class="node"><title>LogFile</title>
<ellipse fill="none" stroke="black" cx="701" cy="-162" rx="38.0212" ry="18"/>
<text text-anchor="middle" x="701" y="-158.3" font-family="Times,serif" font-size="14.00">LogFile</text>
</g>
<!-- User&#45;&gt;LogFile -->
<g id="edge15" class="edge"><title>User&#45;&gt;LogFile</title>
<path fill="none" stroke="#c8d7ec" d="M683.343,-208.778C685.747,-202.544 688.347,-195.805 690.793,-189.463"/>
<ellipse fill="none" stroke="#c8d7ec" cx="681.838" cy="-212.679" rx="4.00001" ry="4.00001"/>
<polygon fill="#c8d7ec" stroke="#c8d7ec" points="690.861,-189.286 698.658,-181.576 692.66,-184.621 694.46,-179.956 694.46,-179.956 694.46,-179.956 692.66,-184.621 690.261,-178.337 690.861,-189.286 690.861,-189.286"/>
</g>
<!-- LogFile&#45;&gt;AccessType -->
<g id="edge17" class="edge"><title>LogFile&#45;&gt;AccessType</title>
<path fill="none" stroke="#219fd1" d="M657.31,-153.678C602.547,-144.262 505.919,-126.862 424,-108 419.001,-106.849 413.799,-105.573 408.623,-104.253"/>
<ellipse fill="none" stroke="#219fd1" cx="661.462" cy="-154.389" rx="4.00001" ry="4.00001"/>
<ellipse fill="#219fd1" stroke="#219fd1" cx="404.415" cy="-103.159" rx="4.00001" ry="4.00001"/>
</g>
<!-- LogFile&#45;&gt;SearchStatistic -->
<g id="edge25" class="edge"><title>LogFile&#45;&gt;SearchStatistic</title>
<path fill="none" stroke="#ae2ab8" d="M662.795,-147.954C628.844,-136.361 579.109,-119.379 542.784,-106.975"/>
<ellipse fill="none" stroke="#ae2ab8" cx="666.966" cy="-149.379" rx="4.00001" ry="4.00001"/>
<ellipse fill="#ae2ab8" stroke="#ae2ab8" cx="538.57" cy="-105.536" rx="4.00001" ry="4.00001"/>
</g>
<!-- LogFile&#45;&gt;GraphicsProcessingUnit -->
<g id="edge23" class="edge"><title>LogFile&#45;&gt;GraphicsProcessingUnit</title>
<path fill="none" stroke="#94c29a" d="M656.69,-155.319C565.948,-143.686 357.633,-116.979 239.964,-101.893"/>
<ellipse fill="none" stroke="#94c29a" cx="660.785" cy="-155.844" rx="4.00001" ry="4.00001"/>
<ellipse fill="#94c29a" stroke="#94c29a" cx="235.966" cy="-101.38" rx="4.00001" ry="4.00001"/>
</g>
<!-- LogFile&#45;&gt;Platform -->
<g id="edge19" class="edge"><title>LogFile&#45;&gt;Platform</title>
<path fill="none" stroke="#f5282f" d="M676.819,-140.358C666.271,-131.354 653.927,-120.816 643.36,-111.795"/>
<ellipse fill="none" stroke="#f5282f" cx="680.165" cy="-143.214" rx="4.00002" ry="4.00002"/>
<ellipse fill="#f5282f" stroke="#f5282f" cx="640.083" cy="-108.998" rx="4.00002" ry="4.00002"/>
</g>
<!-- LogFile&#45;&gt;LogEvent -->
<g id="edge24" class="edge"><title>LogFile&#45;&gt;LogEvent</title>
<path fill="none" stroke="#0958d4" d="M746.543,-157.275C819.344,-150.76 966.142,-135.32 1088,-108 1091.62,-107.189 1095.34,-106.248 1099.06,-105.233"/>
<ellipse fill="none" stroke="#0958d4" cx="742.445" cy="-157.637" rx="4" ry="4"/>
<polygon fill="#0958d4" stroke="#0958d4" points="1099.22,-105.187 1110.07,-106.734 1104.02,-103.799 1108.83,-102.411 1108.83,-102.411 1108.83,-102.411 1104.02,-103.799 1107.58,-98.0876 1099.22,-105.187 1099.22,-105.187"/>
</g>
<!-- LogFile&#45;&gt;RuntimeStatistic -->
<g id="edge21" class="edge"><title>LogFile&#45;&gt;RuntimeStatistic</title>
<path fill="none" stroke="#84fba8" d="M716.787,-137.978C721.478,-131.136 726.647,-123.599 731.444,-116.603"/>
<ellipse fill="none" stroke="#84fba8" cx="714.395" cy="-141.466" rx="4.00002" ry="4.00002"/>
<polygon fill="#84fba8" stroke="#84fba8" points="731.603,-116.371 740.969,-110.669 734.43,-112.248 737.258,-108.124 737.258,-108.124 737.258,-108.124 734.43,-112.248 733.547,-105.579 731.603,-116.371 731.603,-116.371"/>
</g>
<!-- LogFile&#45;&gt;Pool -->
<g id="edge22" class="edge"><title>LogFile&#45;&gt;Pool</title>
<path fill="none" stroke="#b6c8e9" d="M746.486,-157.113C808.349,-150.977 921.965,-136.673 1015,-108 1017.28,-107.297 1019.6,-106.484 1021.92,-105.603"/>
<ellipse fill="none" stroke="#b6c8e9" cx="742.455" cy="-157.504" rx="4" ry="4"/>
<polygon fill="#b6c8e9" stroke="#b6c8e9" points="1022.02,-105.558 1032.98,-105.846 1026.63,-103.627 1031.24,-101.695 1031.24,-101.695 1031.24,-101.695 1026.63,-103.627 1029.51,-97.5446 1022.02,-105.558 1022.02,-105.558"/>
</g>
<!-- Gpu -->
<g id="node15" class="node"><title>Gpu</title>
<ellipse fill="none" stroke="black" cx="864" cy="-90" rx="27" ry="18"/>
<text text-anchor="middle" x="864" y="-86.3" font-family="Times,serif" font-size="14.00">Gpu</text>
</g>
<!-- LogFile&#45;&gt;Gpu -->
<g id="edge20" class="edge"><title>LogFile&#45;&gt;Gpu</title>
<path fill="none" stroke="#22bf2c" d="M736.672,-146.358C761.974,-135.884 796.684,-121.336 827,-108 829.05,-107.098 831.16,-106.159 833.283,-105.206"/>
<ellipse fill="none" stroke="#22bf2c" cx="732.833" cy="-147.944" rx="4.00002" ry="4.00002"/>
<polygon fill="#22bf2c" stroke="#22bf2c" points="833.426,-105.141 844.392,-105.104 837.979,-103.074 842.532,-101.007 842.532,-101.007 842.532,-101.007 837.979,-103.074 840.672,-96.9093 833.426,-105.141 833.426,-105.141"/>
</g>
<!-- ConfigFile -->
<g id="node16" class="node"><title>ConfigFile</title>
<ellipse fill="none" stroke="black" cx="958" cy="-90" rx="48.6179" ry="18"/>
<text text-anchor="middle" x="958" y="-86.3" font-family="Times,serif" font-size="14.00">ConfigFile</text>
</g>
<!-- LogFile&#45;&gt;ConfigFile -->
<g id="edge18" class="edge"><title>LogFile&#45;&gt;ConfigFile</title>
<path fill="none" stroke="#06979f" d="M741.804,-150.449C782.086,-139.959 845.4,-123.27 900,-108 904.467,-106.751 909.12,-105.426 913.763,-104.089"/>
<ellipse fill="none" stroke="#06979f" cx="737.688" cy="-151.52" rx="4.00001" ry="4.00001"/>
<ellipse fill="#06979f" stroke="#06979f" cx="917.689" cy="-102.952" rx="4.00001" ry="4.00001"/>
</g>
<!-- ActiveRecord::Base -->
<g id="node17" class="node"><title>ActiveRecord::Base</title>
<ellipse fill="none" stroke="black" cx="702" cy="-327" rx="81.3646" ry="18"/>
<text text-anchor="middle" x="702" y="-323.3" font-family="Times,serif" font-size="14.00">ActiveRecord::Base</text>
</g>
<!-- ActiveRecord::Base&#45;&gt;AccessType -->
<g id="edge1" class="edge"><title>ActiveRecord::Base&#45;&gt;AccessType</title>
<path fill="none" stroke="black" d="M676.951,-309.746C654.162,-294.888 619.655,-272.215 590,-252 513.1,-199.579 423.107,-135.493 382.641,-106.528"/>
</g>
<!-- ActiveRecord::Base&#45;&gt;PoolStatistic -->
<g id="edge2" class="edge"><title>ActiveRecord::Base&#45;&gt;PoolStatistic</title>
<path fill="none" stroke="black" d="M665.024,-310.928C631.18,-296.78 579.98,-274.482 537,-252 427.112,-194.521 359.001,-215.972 298,-108 284.856,-84.7349 299.69,-54.2198 311.745,-35.6393"/>
</g>
<!-- ActiveRecord::Base&#45;&gt;GraphicsProcessingUnitStat -->
<g id="edge3" class="edge"><title>ActiveRecord::Base&#45;&gt;GraphicsProcessingUnitStat</title>
<path fill="none" stroke="black" d="M670.8,-310.197C653.596,-302.201 631.602,-293.125 611,-288 442.078,-245.979 381.601,-319.139 221,-252 129.33,-213.677 91.9112,-198.086 50,-108 43.2509,-93.4931 43.4837,-86.6129 50,-72 56.617,-57.1611 69.6693,-44.7412 81.8185,-35.6631"/>
</g>
<!-- ActiveRecord::Base&#45;&gt;SearchStatistic -->
<g id="edge4" class="edge"><title>ActiveRecord::Base&#45;&gt;SearchStatistic</title>
<path fill="none" stroke="black" d="M682.72,-309.412C666.232,-294.889 642.196,-272.898 623,-252 577.482,-202.447 529.952,-138.308 508.19,-108.129"/>
</g>
<!-- ActiveRecord::Base&#45;&gt;GraphicsProcessingUnit -->
<g id="edge6" class="edge"><title>ActiveRecord::Base&#45;&gt;GraphicsProcessingUnit</title>
<path fill="none" stroke="black" d="M670.776,-310.293C653.565,-302.324 631.572,-293.245 611,-288 536.092,-268.903 331.402,-291.582 265,-252 208.152,-218.113 173.979,-142.089 161.002,-108.048"/>
</g>
<!-- ActiveRecord::Base&#45;&gt;Platform -->
<g id="edge7" class="edge"><title>ActiveRecord::Base&#45;&gt;Platform</title>
<path fill="none" stroke="black" d="M682.247,-309.322C667.414,-295.569 648.005,-274.691 638,-252 616.54,-203.326 616.411,-138.768 617.813,-108.309"/>
</g>
<!-- ActiveRecord::Base&#45;&gt;LogEvent -->
<g id="edge8" class="edge"><title>ActiveRecord::Base&#45;&gt;LogEvent</title>
<path fill="none" stroke="black" d="M735.891,-310.637C767.515,-296.109 815.867,-273.405 857,-252 955.302,-200.845 1069.21,-134.207 1117.91,-105.354"/>
</g>
<!-- ActiveRecord::Base&#45;&gt;RuntimeStatistic -->
<g id="edge10" class="edge"><title>ActiveRecord::Base&#45;&gt;RuntimeStatistic</title>
<path fill="none" stroke="black" d="M709.219,-308.871C720.124,-281.996 740.337,-228.026 748,-180 751.944,-155.28 751.297,-126.206 750.29,-108.188"/>
</g>
<!-- ActiveRecord::Base&#45;&gt;Pool -->
<g id="edge12" class="edge"><title>ActiveRecord::Base&#45;&gt;Pool</title>
<path fill="none" stroke="black" d="M727.716,-309.751C751.113,-294.897 786.542,-272.227 817,-252 898.778,-197.692 995.025,-130.806 1034.14,-103.499"/>
</g>
<!-- ActiveRecord::Base&#45;&gt;LogEventType -->
<g id="edge14" class="edge"><title>ActiveRecord::Base&#45;&gt;LogEventType</title>
<path fill="none" stroke="black" d="M781.103,-322.708C855.305,-316.628 967.234,-299.562 1052,-252 1083.68,-234.222 1110.52,-200.484 1124.85,-180.04"/>
</g>
<!-- ActiveRecord::Base&#45;&gt;User -->
<g id="edge16" class="edge"><title>ActiveRecord::Base&#45;&gt;User</title>
<path fill="none" stroke="black" d="M696.733,-308.884C691.696,-292.511 684.146,-267.975 679.148,-251.732"/>
</g>
<!-- ActiveRecord::Base&#45;&gt;LogFile -->
<g id="edge26" class="edge"><title>ActiveRecord::Base&#45;&gt;LogFile</title>
<path fill="none" stroke="black" d="M704.912,-308.842C708.204,-287.192 712.767,-248.818 710,-216 708.981,-203.91 706.676,-190.431 704.654,-180.092"/>
</g>
<!-- ActiveRecord::Base&#45;&gt;Gpu -->
<g id="edge27" class="edge"><title>ActiveRecord::Base&#45;&gt;Gpu</title>
<path fill="none" stroke="black" d="M713.651,-309.099C743.759,-265.424 823.836,-149.262 853.097,-106.815"/>
</g>
<!-- ActiveRecord::Base&#45;&gt;ConfigFile -->
<g id="edge28" class="edge"><title>ActiveRecord::Base&#45;&gt;ConfigFile</title>
<path fill="none" stroke="black" d="M720.411,-309.099C767.874,-265.53 893.922,-149.822 940.436,-107.124"/>
</g>
<!-- Object -->
<g id="node18" class="node"><title>Object</title>
<ellipse fill="none" stroke="black" cx="1159" cy="-327" rx="34.1708" ry="18"/>
<text text-anchor="middle" x="1159" y="-323.3" font-family="Times,serif" font-size="14.00">Object</text>
</g>
<!-- Object&#45;&gt;Ability -->
<g id="edge9" class="edge"><title>Object&#45;&gt;Ability</title>
<path fill="none" stroke="black" d="M1159,-308.884C1159,-292.614 1159,-268.284 1159,-252.04"/>
</g>
</g>
</svg>
