<?xml version="1.0" encoding="UTF-8" standalone="no"?>
<!DOCTYPE svg PUBLIC "-//W3C//DTD SVG 1.1//EN"
 "http://www.w3.org/Graphics/SVG/1.1/DTD/svg11.dtd">
<!-- Generated by graphviz version 2.36.0 (20140111.2315)
 -->
<!-- Title: models_diagram Pages: 1 -->
<svg width="1053pt" height="374pt"
 viewBox="0.00 0.00 1053.00 374.00" xmlns="http://www.w3.org/2000/svg" xmlns:xlink="http://www.w3.org/1999/xlink">
<g id="graph0" class="graph" transform="scale(1 1) rotate(0) translate(4 370)">
<title>models_diagram</title>
<polygon fill="white" stroke="none" points="-4,4 -4,-370 1049,-370 1049,4 -4,4"/>
<!-- _diagram_info -->
<g id="node1" class="node"><title>_diagram_info</title>
<text text-anchor="start" x="276" y="-351.6" font-family="Times,serif" font-size="13.00">Models diagram</text>
<text text-anchor="start" x="276" y="-337.6" font-family="Times,serif" font-size="13.00">Date: Sep 11 2014 &#45; 00:16</text>
<text text-anchor="start" x="276" y="-323.6" font-family="Times,serif" font-size="13.00">Migration version: 20140906170502</text>
<text text-anchor="start" x="276" y="-309.6" font-family="Times,serif" font-size="13.00">Generated by RailRoady 1.1.2</text>
<text text-anchor="start" x="276" y="-295.6" font-family="Times,serif" font-size="13.00">http://railroady.prestonlee.com</text>
</g>
<!-- AccessType -->
<g id="node2" class="node"><title>AccessType</title>
<ellipse fill="none" stroke="black" cx="361" cy="-90" rx="53.4184" ry="18"/>
<text text-anchor="middle" x="361" y="-86.3" font-family="Times,serif" font-size="14.00">AccessType</text>
</g>
<!-- PoolStatistic -->
<g id="node3" class="node"><title>PoolStatistic</title>
<ellipse fill="none" stroke="black" cx="324" cy="-18" rx="55.3682" ry="18"/>
<text text-anchor="middle" x="324" y="-14.3" font-family="Times,serif" font-size="14.00">PoolStatistic</text>
</g>
<!-- GraphicsProcessingUnitStat -->
<g id="node4" class="node"><title>GraphicsProcessingUnitStat</title>
<ellipse fill="none" stroke="black" cx="109" cy="-18" rx="109.261" ry="18"/>
<text text-anchor="middle" x="109" y="-14.3" font-family="Times,serif" font-size="14.00">GraphicsProcessingUnitStat</text>
</g>
<!-- GraphicsProcessingUnit -->
<g id="node5" class="node"><title>GraphicsProcessingUnit</title>
<ellipse fill="none" stroke="black" cx="155" cy="-90" rx="96.2874" ry="18"/>
<text text-anchor="middle" x="155" y="-86.3" font-family="Times,serif" font-size="14.00">GraphicsProcessingUnit</text>
</g>
<!-- GraphicsProcessingUnit&#45;&gt;GraphicsProcessingUnitStat -->
<g id="edge4" class="edge"><title>GraphicsProcessingUnit&#45;&gt;GraphicsProcessingUnitStat</title>
<path fill="none" stroke="#b81f33" d="M139.298,-65.1057C134.633,-58.0071 129.522,-50.2286 124.848,-43.116"/>
<ellipse fill="none" stroke="#b81f33" cx="141.668" cy="-68.7121" rx="4.00002" ry="4.00002"/>
<ellipse fill="#b81f33" stroke="#b81f33" cx="122.549" cy="-39.6181" rx="4.00002" ry="4.00002"/>
</g>
<!-- Platform -->
<g id="node6" class="node"><title>Platform</title>
<ellipse fill="none" stroke="black" cx="475" cy="-90" rx="42.3701" ry="18"/>
<text text-anchor="middle" x="475" y="-86.3" font-family="Times,serif" font-size="14.00">Platform</text>
</g>
<!-- LogEvent -->
<g id="node7" class="node"><title>LogEvent</title>
<ellipse fill="none" stroke="black" cx="581" cy="-90" rx="45.244" ry="18"/>
<text text-anchor="middle" x="581" y="-86.3" font-family="Times,serif" font-size="14.00">LogEvent</text>
</g>
<!-- Ability -->
<g id="node8" class="node"><title>Ability</title>
<polygon fill="none" stroke="black" points="1038.25,-252 983.75,-252 983.75,-216 1038.25,-216 1038.25,-252"/>
<text text-anchor="middle" x="1011" y="-230.3" font-family="Times,serif" font-size="14.00">Ability</text>
</g>
<!-- RuntimeStatistic -->
<g id="node9" class="node"><title>RuntimeStatistic</title>
<ellipse fill="none" stroke="black" cx="714" cy="-90" rx="69.3156" ry="18"/>
<text text-anchor="middle" x="714" y="-86.3" font-family="Times,serif" font-size="14.00">RuntimeStatistic</text>
</g>
<!-- Pool -->
<g id="node10" class="node"><title>Pool</title>
<ellipse fill="none" stroke="black" cx="829" cy="-90" rx="27" ry="18"/>
<text text-anchor="middle" x="829" y="-86.3" font-family="Times,serif" font-size="14.00">Pool</text>
</g>
<!-- Pool&#45;&gt;PoolStatistic -->
<g id="edge10" class="edge"><title>Pool&#45;&gt;PoolStatistic</title>
<path fill="none" stroke="#b46000" d="M800.76,-74.9326C797.847,-73.8136 794.894,-72.8064 792,-72 652.064,-33.0109 480.969,-22.6118 389.351,-19.8984"/>
<ellipse fill="none" stroke="#b46000" cx="804.617" cy="-76.5492" rx="4.00002" ry="4.00002"/>
<polygon fill="#b46000" stroke="#b46000" points="389.115,-19.892 379.242,-15.1194 384.117,-19.7549 379.119,-19.6178 379.119,-19.6178 379.119,-19.6178 384.117,-19.7549 378.995,-24.1161 389.115,-19.892 389.115,-19.892"/>
</g>
<!-- LogEventType -->
<g id="node11" class="node"><title>LogEventType</title>
<ellipse fill="none" stroke="black" cx="581" cy="-162" rx="63.5411" ry="18"/>
<text text-anchor="middle" x="581" y="-158.3" font-family="Times,serif" font-size="14.00">LogEventType</text>
</g>
<!-- LogEventType&#45;&gt;LogEvent -->
<g id="edge12" class="edge"><title>LogEventType&#45;&gt;LogEvent</title>
<path fill="none" stroke="#0741e0" d="M581,-135.64C581,-130.063 581,-124.132 581,-118.476"/>
<ellipse fill="none" stroke="#0741e0" cx="581" cy="-139.697" rx="4" ry="4"/>
<polygon fill="#0741e0" stroke="#0741e0" points="581,-118.104 585.5,-108.104 581,-113.104 581,-108.104 581,-108.104 581,-108.104 581,-113.104 576.5,-108.104 581,-118.104 581,-118.104"/>
</g>
<!-- User -->
<g id="node12" class="node"><title>User</title>
<ellipse fill="none" stroke="black" cx="694" cy="-234" rx="26.949" ry="18"/>
<text text-anchor="middle" x="694" y="-230.3" font-family="Times,serif" font-size="14.00">User</text>
</g>
<!-- LogFile -->
<g id="node13" class="node"><title>LogFile</title>
<ellipse fill="none" stroke="black" cx="701" cy="-162" rx="38.0212" ry="18"/>
<text text-anchor="middle" x="701" y="-158.3" font-family="Times,serif" font-size="14.00">LogFile</text>
</g>
<!-- User&#45;&gt;LogFile -->
<g id="edge14" class="edge"><title>User&#45;&gt;LogFile</title>
<path fill="none" stroke="#53b260" d="M696.536,-207.64C697.094,-202.063 697.687,-196.132 698.252,-190.476"/>
<ellipse fill="none" stroke="#53b260" cx="696.128" cy="-211.716" rx="4" ry="4"/>
<polygon fill="#53b260" stroke="#53b260" points="698.294,-190.055 703.767,-180.552 698.792,-185.08 699.29,-180.104 699.29,-180.104 699.29,-180.104 698.792,-185.08 694.812,-179.657 698.294,-190.055 698.294,-190.055"/>
</g>
<!-- LogFile&#45;&gt;AccessType -->
<g id="edge16" class="edge"><title>LogFile&#45;&gt;AccessType</title>
<path fill="none" stroke="#c75855" d="M664.972,-147.441C660.965,-146.172 656.917,-144.992 653,-144 553.128,-118.695 524.77,-129.452 424,-108 418.789,-106.891 413.366,-105.615 407.985,-104.272"/>
<ellipse fill="none" stroke="#c75855" cx="668.788" cy="-148.706" rx="4.00001" ry="4.00001"/>
<ellipse fill="#c75855" stroke="#c75855" cx="404.036" cy="-103.26" rx="4.00001" ry="4.00001"/>
</g>
<!-- LogFile&#45;&gt;GraphicsProcessingUnit -->
<g id="edge22" class="edge"><title>LogFile&#45;&gt;GraphicsProcessingUnit</title>
<path fill="none" stroke="#c3c710" d="M665.185,-147.272C661.115,-146.025 656.995,-144.896 653,-144 498.26,-109.28 455.634,-125.361 298,-108 279.626,-105.976 259.937,-103.704 241.225,-101.494"/>
<ellipse fill="none" stroke="#c3c710" cx="669.1" cy="-148.548" rx="4.00001" ry="4.00001"/>
<ellipse fill="#c3c710" stroke="#c3c710" cx="237.244" cy="-101.023" rx="4.00001" ry="4.00001"/>
</g>
<!-- LogFile&#45;&gt;Platform -->
<g id="edge18" class="edge"><title>LogFile&#45;&gt;Platform</title>
<path fill="none" stroke="#db84ed" d="M664.063,-147.659C660.336,-146.391 656.6,-145.151 653,-144 597.524,-126.27 582.689,-125.052 527,-108 523.071,-106.797 518.984,-105.515 514.906,-104.215"/>
<ellipse fill="none" stroke="#db84ed" cx="667.871" cy="-148.975" rx="4.00001" ry="4.00001"/>
<ellipse fill="#db84ed" stroke="#db84ed" cx="510.925" cy="-102.934" rx="4.00001" ry="4.00001"/>
</g>
<!-- LogFile&#45;&gt;LogEvent -->
<g id="edge23" class="edge"><title>LogFile&#45;&gt;LogEvent</title>
<path fill="none" stroke="#fed82d" d="M670.75,-143.354C653.631,-133.368 632.185,-120.858 614.55,-110.571"/>
<ellipse fill="none" stroke="#fed82d" cx="674.408" cy="-145.488" rx="4.00002" ry="4.00002"/>
<polygon fill="#fed82d" stroke="#fed82d" points="614.356,-110.458 607.986,-101.532 610.037,-107.939 605.719,-105.419 605.719,-105.419 605.719,-105.419 610.037,-107.939 603.451,-109.306 614.356,-110.458 614.356,-110.458"/>
</g>
<!-- LogFile&#45;&gt;RuntimeStatistic -->
<g id="edge20" class="edge"><title>LogFile&#45;&gt;RuntimeStatistic</title>
<path fill="none" stroke="#dd647c" d="M705.645,-135.987C706.711,-130.249 707.849,-124.121 708.931,-118.293"/>
<ellipse fill="none" stroke="#dd647c" cx="704.877" cy="-140.122" rx="4.00001" ry="4.00001"/>
<polygon fill="#dd647c" stroke="#dd647c" points="708.966,-118.107 715.216,-109.097 709.879,-113.191 710.792,-108.275 710.792,-108.275 710.792,-108.275 709.879,-113.191 706.367,-107.454 708.966,-118.107 708.966,-118.107"/>
</g>
<!-- LogFile&#45;&gt;Pool -->
<g id="edge21" class="edge"><title>LogFile&#45;&gt;Pool</title>
<path fill="none" stroke="#431ca0" d="M732.191,-143.943C752.788,-132.679 779.599,-118.016 799.782,-106.978"/>
<ellipse fill="none" stroke="#431ca0" cx="728.585" cy="-145.914" rx="4.00002" ry="4.00002"/>
<polygon fill="#431ca0" stroke="#431ca0" points="800.048,-106.833 810.981,-105.983 804.435,-104.434 808.822,-102.035 808.822,-102.035 808.822,-102.035 804.435,-104.434 806.663,-98.0868 800.048,-106.833 800.048,-106.833"/>
</g>
<!-- Gpu -->
<g id="node14" class="node"><title>Gpu</title>
<ellipse fill="none" stroke="black" cx="901" cy="-90" rx="27" ry="18"/>
<text text-anchor="middle" x="901" y="-86.3" font-family="Times,serif" font-size="14.00">Gpu</text>
</g>
<!-- LogFile&#45;&gt;Gpu -->
<g id="edge19" class="edge"><title>LogFile&#45;&gt;Gpu</title>
<path fill="none" stroke="#8386b8" d="M740.618,-149.756C774.15,-139.87 823.273,-124.515 865,-108 866.832,-107.275 868.702,-106.501 870.579,-105.697"/>
<ellipse fill="none" stroke="#8386b8" cx="736.705" cy="-150.902" rx="4.00001" ry="4.00001"/>
<polygon fill="#8386b8" stroke="#8386b8" points="870.754,-105.619 881.72,-105.634 875.316,-103.573 879.879,-101.528 879.879,-101.528 879.879,-101.528 875.316,-103.573 878.038,-97.4213 870.754,-105.619 870.754,-105.619"/>
</g>
<!-- ConfigFile -->
<g id="node15" class="node"><title>ConfigFile</title>
<ellipse fill="none" stroke="black" cx="995" cy="-90" rx="48.6179" ry="18"/>
<text text-anchor="middle" x="995" y="-86.3" font-family="Times,serif" font-size="14.00">ConfigFile</text>
</g>
<!-- LogFile&#45;&gt;ConfigFile -->
<g id="edge17" class="edge"><title>LogFile&#45;&gt;ConfigFile</title>
<path fill="none" stroke="#94d5ae" d="M743.462,-152.322C790.86,-142.437 869.743,-125.39 937,-108 941.491,-106.839 946.16,-105.572 950.812,-104.27"/>
<ellipse fill="none" stroke="#94d5ae" cx="739.477" cy="-153.151" rx="4.00001" ry="4.00001"/>
<ellipse fill="#94d5ae" stroke="#94d5ae" cx="954.742" cy="-103.153" rx="4.00001" ry="4.00001"/>
</g>
<!-- ActiveRecord::Base -->
<g id="node16" class="node"><title>ActiveRecord::Base</title>
<ellipse fill="none" stroke="black" cx="581" cy="-327" rx="81.3646" ry="18"/>
<text text-anchor="middle" x="581" y="-323.3" font-family="Times,serif" font-size="14.00">ActiveRecord::Base</text>
</g>
<!-- ActiveRecord::Base&#45;&gt;AccessType -->
<g id="edge1" class="edge"><title>ActiveRecord::Base&#45;&gt;AccessType</title>
<path fill="none" stroke="black" d="M560.562,-309.446C543.07,-294.944 517.535,-272.966 497,-252 448.356,-202.335 397.003,-137.706 373.758,-107.682"/>
</g>
<!-- ActiveRecord::Base&#45;&gt;PoolStatistic -->
<g id="edge2" class="edge"><title>ActiveRecord::Base&#45;&gt;PoolStatistic</title>
<path fill="none" stroke="black" d="M543.219,-311.059C477.988,-282.858 346.568,-214.851 298,-108 287.076,-83.9668 300.819,-54.2005 312.107,-35.9099"/>
</g>
<!-- ActiveRecord::Base&#45;&gt;GraphicsProcessingUnitStat -->
<g id="edge3" class="edge"><title>ActiveRecord::Base&#45;&gt;GraphicsProcessingUnitStat</title>
<path fill="none" stroke="black" d="M549.294,-310.346C532.127,-302.494 510.326,-293.506 490,-288 374,-256.576 331.966,-300.486 222,-252 130.776,-211.778 92.1845,-198.334 50,-108 43.2301,-93.5028 43.4837,-86.6129 50,-72 56.617,-57.1611 69.6693,-44.7412 81.8185,-35.6631"/>
</g>
<!-- ActiveRecord::Base&#45;&gt;GraphicsProcessingUnit -->
<g id="edge5" class="edge"><title>ActiveRecord::Base&#45;&gt;GraphicsProcessingUnit</title>
<path fill="none" stroke="black" d="M548.817,-310.362C531.699,-302.612 510.09,-293.714 490,-288 392.592,-260.294 350.531,-306.226 265,-252 209.248,-216.654 174.607,-141.741 161.264,-108.047"/>
</g>
<!-- ActiveRecord::Base&#45;&gt;Platform -->
<g id="edge6" class="edge"><title>ActiveRecord::Base&#45;&gt;Platform</title>
<path fill="none" stroke="black" d="M562.057,-309.272C547.412,-295.336 527.72,-274.237 516,-252 490.583,-203.774 480.348,-139.002 476.732,-108.401"/>
</g>
<!-- ActiveRecord::Base&#45;&gt;LogEvent -->
<g id="edge7" class="edge"><title>ActiveRecord::Base&#45;&gt;LogEvent</title>
<path fill="none" stroke="black" d="M569.198,-309.038C551.747,-282.813 519.85,-230.197 508,-180 504.324,-164.428 500.734,-158.255 508,-144 517.175,-126 535.64,-112.683 551.702,-103.9"/>
</g>
<!-- ActiveRecord::Base&#45;&gt;RuntimeStatistic -->
<g id="edge9" class="edge"><title>ActiveRecord::Base&#45;&gt;RuntimeStatistic</title>
<path fill="none" stroke="black" d="M631.579,-312.883C664.27,-301.857 705.199,-282.832 730,-252 760.5,-214.082 761.691,-190.697 748,-144 744.125,-130.782 735.828,-117.736 728.4,-107.895"/>
</g>
<!-- ActiveRecord::Base&#45;&gt;Pool -->
<g id="edge11" class="edge"><title>ActiveRecord::Base&#45;&gt;Pool</title>
<path fill="none" stroke="black" d="M636.306,-313.684C673.79,-302.882 722.275,-283.798 755,-252 797.581,-210.625 818.017,-140.127 825.497,-107.935"/>
</g>
<!-- ActiveRecord::Base&#45;&gt;LogEventType -->
<g id="edge13" class="edge"><title>ActiveRecord::Base&#45;&gt;LogEventType</title>
<path fill="none" stroke="black" d="M581,-308.864C581,-277.64 581,-211.812 581,-180.397"/>
</g>
<!-- ActiveRecord::Base&#45;&gt;User -->
<g id="edge15" class="edge"><title>ActiveRecord::Base&#45;&gt;User</title>
<path fill="none" stroke="black" d="M601.463,-309.521C623.215,-292.004 657.196,-264.639 677.363,-248.398"/>
</g>
<!-- ActiveRecord::Base&#45;&gt;LogFile -->
<g id="edge24" class="edge"><title>ActiveRecord::Base&#45;&gt;LogFile</title>
<path fill="none" stroke="black" d="M592.376,-308.963C607.09,-287.113 633.717,-248.198 658,-216 667.56,-203.323 678.894,-189.396 687.524,-179.001"/>
</g>
<!-- ActiveRecord::Base&#45;&gt;Gpu -->
<g id="edge25" class="edge"><title>ActiveRecord::Base&#45;&gt;Gpu</title>
<path fill="none" stroke="black" d="M638.603,-314.238C681.324,-303.392 739.312,-284.018 782,-252 835.943,-211.541 876.468,-139.943 892.933,-107.637"/>
</g>
<!-- ActiveRecord::Base&#45;&gt;ConfigFile -->
<g id="edge26" class="edge"><title>ActiveRecord::Base&#45;&gt;ConfigFile</title>
<path fill="none" stroke="black" d="M639.789,-314.525C688.651,-303.343 758.849,-283.376 814,-252 884.916,-211.655 952.294,-139.999 980.771,-107.657"/>
</g>
<!-- Object -->
<g id="node17" class="node"><title>Object</title>
<ellipse fill="none" stroke="black" cx="1011" cy="-327" rx="34.1708" ry="18"/>
<text text-anchor="middle" x="1011" y="-323.3" font-family="Times,serif" font-size="14.00">Object</text>
</g>
<!-- Object&#45;&gt;Ability -->
<g id="edge8" class="edge"><title>Object&#45;&gt;Ability</title>
<path fill="none" stroke="black" d="M1011,-308.884C1011,-292.614 1011,-268.284 1011,-252.04"/>
</g>
</g>
</svg>
